<svg width="393" height="563" viewBox="0 0 393 563" fill="none" xmlns="http://www.w3.org/2000/svg">
<path d="M529 366C529 568.136 384.836 732 207 732C29.1643 732 -115 568.136 -115 366C-115 253.723 -70.5216 153.254 -0.5 86.1165C55.5409 32.3834 127.943 0 207 0C276.951 0 341.693 25.3534 394.5 68.4167C430.843 98.0535 461.533 136.078 484.379 180C512.73 234.506 529 298.093 529 366Z" fill="#4A43A0"/>
<ellipse cx="135.882" cy="145.806" rx="55.188" ry="56.0306" fill="white"/>
<ellipse cx="260.582" cy="145.806" rx="55.188" ry="56.0306" fill="white"/>
<circle cx="151.47" cy="132.09" r="27.8047" fill="black"/>
<circle cx="278.697" cy="132.09" r="27.8047" fill="black"/>
<circle cx="158.631" cy="122.401" r="13.9023" fill="white"/>
<circle cx="285.859" cy="122.401" r="13.9023" fill="white"/>
<path d="M94.1753 89.6813C94.1753 89.6813 130.406 69.0385 170.849 89.6813" stroke="#1E1E1E" stroke-width="6.74052" stroke-linecap="round"/>
<path d="M222.245 76.2938C222.245 76.2938 264.795 46.3827 298.919 76.2938" stroke="#1E1E1E" stroke-width="6.74052" stroke-linecap="round"/>
<path d="M140.938 261.658C140.938 261.658 202.445 236.803 263.952 245.228" stroke="#1E1E1E" stroke-width="6.74052" stroke-linecap="round"/>
<ellipse cx="135.882" cy="206.657" rx="72.0394" ry="36.6516" fill="#4A43A0"/>
<ellipse cx="279.961" cy="206.657" rx="72.0394" ry="36.6516" fill="#4A43A0"/>
</svg>
