<svg width="41" height="41" viewBox="0 0 41 41" fill="none" xmlns="http://www.w3.org/2000/svg">
<path d="M0 9.36C0 4.19062 4.19062 0 9.36 0H30.7543C35.9237 0 40.1143 4.19062 40.1143 9.36V30.7543C40.1143 35.9237 35.9237 40.1143 30.7543 40.1143H9.36C4.19062 40.1143 0 35.9237 0 30.7543V9.36Z" fill="#7DE4EA"/>
<g filter="url(#filter0_d_70_185)">
<g filter="url(#filter1_f_70_185)">
<path d="M27.8215 18.1671C29.3454 15.7245 28.8344 11.0087 27.8009 10.7927L25.828 15.9044L23.4 21.5782C24.4335 21.7942 27.5683 19.3788 27.8215 18.1671Z" fill="#05C1FF" fill-opacity="0.35"/>
</g>
<path d="M19.0543 17.0486C19.0543 20.741 16.061 23.7343 12.3686 23.7343C8.67616 23.7343 5.68286 20.741 5.68286 17.0486C5.68286 13.3562 8.67616 10.3629 12.3686 10.3629C16.061 10.3629 19.0543 13.3562 19.0543 17.0486Z" fill="white"/>
<path d="M34.4314 17.0486C34.4314 20.741 31.4381 23.7343 27.7457 23.7343C24.0533 23.7343 21.06 20.741 21.06 17.0486C21.06 13.3562 24.0533 10.3629 27.7457 10.3629C31.4381 10.3629 34.4314 13.3562 34.4314 17.0486Z" fill="white"/>
<path d="M12.7029 13.5386C12.7029 14.9232 11.5804 16.0457 10.1957 16.0457C8.81105 16.0457 7.68857 14.9232 7.68857 13.5386C7.68857 12.1539 8.81105 11.0314 10.1957 11.0314C11.5804 11.0314 12.7029 12.1539 12.7029 13.5386Z" fill="black"/>
<path d="M28.08 13.5386C28.08 14.9232 26.9575 16.0457 25.5729 16.0457C24.1882 16.0457 23.0657 14.9232 23.0657 13.5386C23.0657 12.1539 24.1882 11.0314 25.5729 11.0314C26.9575 11.0314 28.08 12.1539 28.08 13.5386Z" fill="black"/>
</g>
<g filter="url(#filter2_f_70_185)">
<path d="M27.8215 18.1671C29.3454 15.7245 28.8344 11.0087 27.8009 10.7927L25.828 15.9044L23.4 21.5782C24.4335 21.7942 27.5683 19.3788 27.8215 18.1671Z" fill="#05C1FF" fill-opacity="0.35"/>
</g>
<path d="M19.0543 17.0486C19.0543 20.741 16.061 23.7343 12.3686 23.7343C8.67616 23.7343 5.68286 20.741 5.68286 17.0486C5.68286 13.3562 8.67616 10.3629 12.3686 10.3629C16.061 10.3629 19.0543 13.3562 19.0543 17.0486Z" fill="white"/>
<path d="M34.4314 17.0486C34.4314 20.741 31.4381 23.7343 27.7457 23.7343C24.0533 23.7343 21.06 20.741 21.06 17.0486C21.06 13.3562 24.0533 10.3629 27.7457 10.3629C31.4381 10.3629 34.4314 13.3562 34.4314 17.0486Z" fill="white"/>
<path d="M12.7029 13.5386C12.7029 14.9232 11.5804 16.0457 10.1957 16.0457C8.81105 16.0457 7.68857 14.9232 7.68857 13.5386C7.68857 12.1539 8.81105 11.0314 10.1957 11.0314C11.5804 11.0314 12.7029 12.1539 12.7029 13.5386Z" fill="black"/>
<path d="M28.08 13.5386C28.08 14.9232 26.9575 16.0457 25.5729 16.0457C24.1882 16.0457 23.0657 14.9232 23.0657 13.5386C23.0657 12.1539 24.1882 11.0314 25.5729 11.0314C26.9575 11.0314 28.08 12.1539 28.08 13.5386Z" fill="black"/>
<path fill-rule="evenodd" clip-rule="evenodd" d="M9.55606 7.63273C11.2373 6.98609 13.5346 6.48846 15.8589 7.20362C16.1236 7.28506 16.2721 7.56565 16.1907 7.83034C16.1092 8.09502 15.8286 8.24357 15.564 8.16213C13.5425 7.54015 11.4941 7.96181 9.91606 8.56874C9.1317 8.87042 8.47709 9.21279 8.01927 9.47943C7.79069 9.61256 7.61208 9.72628 7.49186 9.8058C7.43178 9.84555 7.38635 9.87671 7.35665 9.89742C7.3418 9.90778 7.33088 9.91552 7.32404 9.92041L7.31683 9.92558L7.31584 9.9263C7.09226 10.0895 6.77847 10.0408 6.61514 9.8173C6.45174 9.59371 6.50054 9.27999 6.72414 9.1166L7.01999 9.52145C6.72414 9.1166 6.72429 9.11649 6.72445 9.11637L6.72601 9.11524L6.72947 9.11273L6.74114 9.10435C6.751 9.09731 6.76502 9.08738 6.78306 9.0748C6.81913 9.04964 6.87132 9.01388 6.93855 8.9694C7.07297 8.88048 7.26781 8.75654 7.51455 8.61284C8.00735 8.32582 8.71078 7.95784 9.55606 7.63273Z" fill="black"/>
<path fill-rule="evenodd" clip-rule="evenodd" d="M31.5611 7.63273C29.8798 6.98609 27.5825 6.48846 25.2582 7.20362C24.9936 7.28506 24.845 7.56565 24.9265 7.83034C25.0079 8.09502 25.2885 8.24357 25.5532 8.16213C27.5746 7.54015 29.623 7.96181 31.2011 8.56874C31.9854 8.87042 32.64 9.21279 33.0979 9.47943C33.3264 9.61256 33.5051 9.72628 33.6253 9.8058C33.6853 9.84555 33.7308 9.87671 33.7605 9.89742C33.7753 9.90778 33.7862 9.91552 33.7931 9.92041L33.8003 9.92558L33.8013 9.9263C34.0249 10.0895 34.3387 10.0408 34.502 9.8173C34.6654 9.59371 34.6166 9.27999 34.393 9.1166L34.0971 9.52145C34.393 9.1166 34.3928 9.11649 34.3927 9.11637L34.3911 9.11524L34.3877 9.11273L34.376 9.10435C34.3661 9.09731 34.3521 9.08738 34.3341 9.0748C34.298 9.04964 34.2458 9.01388 34.1786 8.9694C34.0442 8.88048 33.8493 8.75654 33.6026 8.61284C33.1098 8.32582 32.4064 7.95784 31.5611 7.63273Z" fill="black"/>
<path fill-rule="evenodd" clip-rule="evenodd" d="M17.3985 29.4254C16.1339 29.5706 15.0431 30.1796 14.3383 31.5737C14.255 31.7384 14.054 31.8045 13.8892 31.7212C13.7244 31.6379 13.6584 31.4368 13.7417 31.272C14.5579 29.6575 15.8572 28.9294 17.3223 28.7612C18.7644 28.5956 20.3577 28.9714 21.8174 29.5222C23.2829 30.0753 24.6465 30.8175 25.6409 31.4189C26.1389 31.72 26.5461 31.987 26.8293 32.1791C26.971 32.2751 27.0817 32.3525 27.1574 32.4061C27.1953 32.4329 27.2244 32.4538 27.2442 32.4681L27.2669 32.4846L27.2729 32.489L27.275 32.4906C27.2752 32.4907 27.2753 32.4908 27.0772 32.76L27.275 32.4906C27.4237 32.6 27.4558 32.8094 27.3464 32.9581C27.237 33.1068 27.0278 33.1387 26.8791 33.0293M26.8791 33.0293L26.8778 33.0283L26.8729 33.0248L26.8526 33.0101C26.8344 32.9969 26.807 32.9772 26.7709 32.9516C26.6987 32.9005 26.5917 32.8257 26.4541 32.7324C26.1789 32.5458 25.7815 32.2852 25.2949 31.991C24.3201 31.4014 22.9949 30.6812 21.5813 30.1478C20.1619 29.6121 18.6861 29.2776 17.3985 29.4254" fill="black"/>
<path fill-rule="evenodd" clip-rule="evenodd" d="M15.0418 32.668C15.0151 32.4854 14.8454 32.3589 14.6627 32.3856C14.4946 32.4101 14.1188 32.4338 13.739 32.297C13.3755 32.166 12.9895 31.883 12.7707 31.2489C12.7105 31.0743 12.5202 30.9817 12.3456 31.0419C12.1711 31.1021 12.0785 31.2924 12.1387 31.4669C12.4285 32.3068 12.9734 32.7318 13.5123 32.926C14.0349 33.1142 14.533 33.0802 14.7593 33.0471C14.942 33.0204 15.0685 32.8507 15.0418 32.668Z" fill="black"/>
<path fill-rule="evenodd" clip-rule="evenodd" d="M15.0418 32.668C15.0151 32.4854 14.8454 32.3589 14.6627 32.3856C14.4946 32.4101 14.1188 32.4338 13.739 32.297C13.3755 32.166 12.9895 31.883 12.7707 31.2489C12.7105 31.0743 12.5202 30.9817 12.3456 31.0419C12.1711 31.1021 12.0785 31.2924 12.1387 31.4669C12.4285 32.3068 12.9734 32.7318 13.5123 32.926C14.0349 33.1142 14.533 33.0802 14.7593 33.0471C14.942 33.0204 15.0685 32.8507 15.0418 32.668Z" fill="black"/>
<path fill-rule="evenodd" clip-rule="evenodd" d="M28.4179 32.0953C28.2354 32.0674 28.0648 32.1927 28.0369 32.3752C28.0113 32.5432 27.9241 32.9095 27.6822 33.2327C27.4507 33.542 27.0672 33.8284 26.3967 33.8522C26.2122 33.8588 26.068 34.0137 26.0745 34.1982C26.0811 34.3827 26.236 34.5269 26.4205 34.5204C27.3084 34.4888 27.8741 34.092 28.2174 33.6333C28.5502 33.1887 28.6633 32.7024 28.6978 32.4762C28.7257 32.2937 28.6004 32.1232 28.4179 32.0953Z" fill="black"/>
<defs>
<filter id="filter0_d_70_185" x="4.34572" y="10.3629" width="31.4229" height="16.0457" filterUnits="userSpaceOnUse" color-interpolation-filters="sRGB">
<feFlood flood-opacity="0" result="BackgroundImageFix"/>
<feColorMatrix in="SourceAlpha" type="matrix" values="0 0 0 0 0 0 0 0 0 0 0 0 0 0 0 0 0 0 127 0" result="hardAlpha"/>
<feOffset dy="1.33714"/>
<feGaussianBlur stdDeviation="0.668571"/>
<feComposite in2="hardAlpha" operator="out"/>
<feColorMatrix type="matrix" values="0 0 0 0 0 0 0 0 0 0 0 0 0 0 0 0 0 0 0.25 0"/>
<feBlend mode="normal" in2="BackgroundImageFix" result="effect1_dropShadow_70_185"/>
<feBlend mode="normal" in="SourceGraphic" in2="effect1_dropShadow_70_185" result="shape"/>
</filter>
<filter id="filter1_f_70_185" x="17.3829" y="4.77558" width="17.4147" height="22.8334" filterUnits="userSpaceOnUse" color-interpolation-filters="sRGB">
<feFlood flood-opacity="0" result="BackgroundImageFix"/>
<feBlend mode="normal" in="SourceGraphic" in2="BackgroundImageFix" result="shape"/>
<feGaussianBlur stdDeviation="3.00857" result="effect1_foregroundBlur_70_185"/>
</filter>
<filter id="filter2_f_70_185" x="17.3829" y="4.77558" width="17.4147" height="22.8334" filterUnits="userSpaceOnUse" color-interpolation-filters="sRGB">
<feFlood flood-opacity="0" result="BackgroundImageFix"/>
<feBlend mode="normal" in="SourceGraphic" in2="BackgroundImageFix" result="shape"/>
<feGaussianBlur stdDeviation="3.00857" result="effect1_foregroundBlur_70_185"/>
</filter>
</defs>
</svg>
