<svg width="393" height="419" viewBox="0 0 393 419" fill="none" xmlns="http://www.w3.org/2000/svg">
<ellipse cx="207" cy="289" rx="322" ry="289" fill="#A19FFF"/>
<ellipse cx="145.711" cy="140.026" rx="46.5099" ry="47.3836" fill="white"/>
<ellipse cx="250.802" cy="140.026" rx="46.5099" ry="47.3836" fill="white"/>
<ellipse cx="158.848" cy="128.428" rx="23.4325" ry="23.5137" fill="black"/>
<ellipse cx="266.069" cy="128.428" rx="23.4325" ry="23.5137" fill="black"/>
<ellipse cx="164.883" cy="120.234" rx="11.7162" ry="11.7568" fill="white"/>
<ellipse cx="272.105" cy="120.234" rx="11.7162" ry="11.7568" fill="white"/>
<path d="M110.562 92.5636C110.562 92.5636 141.096 75.1065 175.179 92.5636" stroke="#1E1E1E" stroke-width="7.11111" stroke-linecap="round"/>
<path d="M218.494 81.2422C218.494 81.2422 254.352 55.9472 283.11 81.2422" stroke="#1E1E1E" stroke-width="7.11111" stroke-linecap="round"/>
<path d="M149.972 238C149.972 238 201.807 216.98 253.643 224.106" stroke="#1E1E1E" stroke-width="7.11111" stroke-linecap="round"/>
<ellipse cx="145.711" cy="191.487" rx="60.7114" ry="30.9953" fill="#A19FFF"/>
<ellipse cx="267.134" cy="191.487" rx="60.7114" ry="30.9953" fill="#A19FFF"/>
</svg>
