<svg width="562" height="562" viewBox="0 0 562 562" fill="none" xmlns="http://www.w3.org/2000/svg">
<rect width="562" height="562" rx="281" fill="#FFD062"/>
<path d="M131 123.333C131 91.1167 162.653 65 201.7 65H363.3C402.347 65 434 91.1167 434 123.333V256.667C434 288.883 402.347 315 363.3 315H201.7C162.653 315 131 288.883 131 256.667V123.333Z" fill="#FFD062"/>
<g filter="url(#filter0_d_270_3334)">
<g filter="url(#filter1_f_270_3334)">
<path d="M341.148 178.221C352.658 162.998 348.799 133.609 340.992 132.262L326.09 164.119L307.75 199.48C315.557 200.826 339.235 185.772 341.148 178.221Z" fill="#05C1FF" fill-opacity="0.35"/>
</g>
<path d="M274.925 171.25C274.925 194.262 252.315 212.917 224.425 212.917C196.534 212.917 173.925 194.262 173.925 171.25C173.925 148.238 196.534 129.583 224.425 129.583C252.315 129.583 274.925 148.238 274.925 171.25Z" fill="white"/>
<path d="M391.075 171.25C391.075 194.262 368.465 212.917 340.575 212.917C312.684 212.917 290.075 194.262 290.075 171.25C290.075 148.238 312.684 129.583 340.575 129.583C368.465 129.583 391.075 148.238 391.075 171.25Z" fill="white"/>
<path d="M226.95 149.375C226.95 158.004 218.471 165 208.012 165C197.553 165 189.075 158.004 189.075 149.375C189.075 140.746 197.553 133.75 208.012 133.75C218.471 133.75 226.95 140.746 226.95 149.375Z" fill="black"/>
<path d="M343.1 149.375C343.1 158.004 334.621 165 324.162 165C313.703 165 305.225 158.004 305.225 149.375C305.225 140.746 313.703 133.75 324.162 133.75C334.621 133.75 343.1 140.746 343.1 149.375Z" fill="black"/>
</g>
<g filter="url(#filter2_f_270_3334)">
<path d="M341.148 178.221C352.658 162.998 348.799 133.609 340.992 132.262L326.09 164.119L307.75 199.48C315.557 200.826 339.235 185.772 341.148 178.221Z" fill="#05C1FF" fill-opacity="0.35"/>
</g>
<path d="M274.925 171.25C274.925 194.262 252.315 212.917 224.425 212.917C196.534 212.917 173.925 194.262 173.925 171.25C173.925 148.238 196.534 129.583 224.425 129.583C252.315 129.583 274.925 148.238 274.925 171.25Z" fill="white"/>
<path d="M391.075 171.25C391.075 194.262 368.465 212.917 340.575 212.917C312.684 212.917 290.075 194.262 290.075 171.25C290.075 148.238 312.684 129.583 340.575 129.583C368.465 129.583 391.075 148.238 391.075 171.25Z" fill="white"/>
<path d="M226.95 149.375C226.95 158.004 218.471 165 208.012 165C197.553 165 189.075 158.004 189.075 149.375C189.075 140.746 197.553 133.75 208.012 133.75C218.471 133.75 226.95 140.746 226.95 149.375Z" fill="black"/>
<path d="M343.1 149.375C343.1 158.004 334.621 165 324.162 165C313.703 165 305.225 158.004 305.225 149.375C305.225 140.746 313.703 133.75 324.162 133.75C334.621 133.75 343.1 140.746 343.1 149.375Z" fill="black"/>
<path fill-rule="evenodd" clip-rule="evenodd" d="M203.181 112.569C215.88 108.539 233.233 105.437 250.789 109.894C252.788 110.402 253.91 112.151 253.295 113.8C252.68 115.45 250.56 116.376 248.561 115.868C233.292 111.992 217.82 114.62 205.9 118.402C199.976 120.282 195.031 122.416 191.573 124.078C189.846 124.907 188.497 125.616 187.589 126.112C187.135 126.359 186.792 126.554 186.568 126.683C186.456 126.747 186.373 126.795 186.322 126.826L186.267 126.858L186.26 126.863C184.571 127.88 182.201 127.576 180.967 126.183C179.733 124.79 180.101 122.835 181.79 121.816L184.025 124.34C181.79 121.816 181.792 121.816 181.793 121.815L181.805 121.808L181.831 121.792L181.919 121.74C181.993 121.696 182.099 121.634 182.235 121.556C182.508 121.399 182.902 121.176 183.41 120.899C184.425 120.345 185.897 119.573 187.761 118.677C191.483 116.888 196.796 114.595 203.181 112.569Z" fill="black"/>
<path fill-rule="evenodd" clip-rule="evenodd" d="M369.394 112.569C356.695 108.539 339.342 105.437 321.786 109.894C319.787 110.402 318.665 112.151 319.28 113.8C319.895 115.45 322.015 116.376 324.014 115.868C339.283 111.992 354.755 114.62 366.675 118.402C372.599 120.282 377.544 122.416 381.002 124.078C382.729 124.907 384.078 125.616 384.986 126.112C385.44 126.359 385.783 126.554 386.007 126.683C386.119 126.747 386.202 126.795 386.254 126.826L386.308 126.858L386.315 126.863C388.004 127.88 390.374 127.576 391.608 126.183C392.842 124.79 392.474 122.835 390.785 121.816L388.55 124.34C390.785 121.816 390.784 121.816 390.782 121.815L390.771 121.808L390.745 121.792L390.656 121.74C390.582 121.696 390.476 121.634 390.34 121.556C390.067 121.399 389.673 121.176 389.165 120.899C388.15 120.345 386.678 119.573 384.815 118.677C381.092 116.888 375.779 114.595 369.394 112.569Z" fill="black"/>
<path fill-rule="evenodd" clip-rule="evenodd" d="M262.418 248.385C252.866 249.29 244.627 253.085 239.303 261.773C238.674 262.8 237.155 263.212 235.911 262.693C234.666 262.173 234.167 260.92 234.797 259.893C240.962 249.831 250.776 245.294 261.842 244.245C272.735 243.214 284.77 245.556 295.795 248.988C306.865 252.435 317.165 257.061 324.676 260.809C328.438 262.685 331.514 264.349 333.653 265.546C334.723 266.145 335.56 266.627 336.131 266.961C336.417 267.128 336.637 267.259 336.786 267.348L336.958 267.45L337.003 267.478L337.019 267.488C337.021 267.488 337.021 267.489 335.525 269.167L337.019 267.488C338.143 268.169 338.385 269.475 337.559 270.401C336.732 271.328 335.152 271.527 334.029 270.845M334.029 270.845L334.019 270.839L333.982 270.817L333.829 270.725C333.691 270.643 333.484 270.52 333.212 270.361C332.666 270.042 331.858 269.576 330.819 268.995C328.74 267.832 325.738 266.208 322.063 264.374C314.7 260.7 304.69 256.211 294.013 252.887C283.291 249.549 272.144 247.464 262.418 248.385" fill="black"/>
<path fill-rule="evenodd" clip-rule="evenodd" d="M244.617 268.594C244.415 267.455 243.133 266.667 241.753 266.833C240.484 266.986 237.645 267.134 234.776 266.281C232.031 265.465 229.115 263.701 227.462 259.749C227.007 258.661 225.57 258.084 224.252 258.459C222.933 258.834 222.234 260.02 222.688 261.108C224.877 266.342 228.993 268.991 233.064 270.201C237.011 271.374 240.773 271.162 242.483 270.956C243.863 270.79 244.818 269.732 244.617 268.594Z" fill="black"/>
<path fill-rule="evenodd" clip-rule="evenodd" d="M244.617 268.594C244.415 267.455 243.133 266.667 241.753 266.833C240.484 266.986 237.645 267.134 234.776 266.281C232.031 265.465 229.115 263.701 227.462 259.749C227.007 258.661 225.57 258.084 224.252 258.459C222.933 258.834 222.234 260.02 222.688 261.108C224.877 266.342 228.993 268.991 233.064 270.201C237.011 271.374 240.773 271.162 242.483 270.956C243.863 270.79 244.818 269.732 244.617 268.594Z" fill="black"/>
<path fill-rule="evenodd" clip-rule="evenodd" d="M345.652 265.024C344.274 264.85 342.985 265.631 342.775 266.769C342.581 267.815 341.922 270.098 340.095 272.113C338.346 274.04 335.45 275.825 330.386 275.974C328.992 276.014 327.902 276.98 327.952 278.13C328.002 279.28 329.171 280.179 330.565 280.138C337.271 279.941 341.545 277.468 344.138 274.609C346.652 271.838 347.506 268.807 347.767 267.398C347.977 266.261 347.031 265.198 345.652 265.024Z" fill="black"/>
<defs>
<filter id="filter0_d_270_3334" x="172.588" y="129.583" width="219.824" height="86.0076" filterUnits="userSpaceOnUse" color-interpolation-filters="sRGB">
<feFlood flood-opacity="0" result="BackgroundImageFix"/>
<feColorMatrix in="SourceAlpha" type="matrix" values="0 0 0 0 0 0 0 0 0 0 0 0 0 0 0 0 0 0 127 0" result="hardAlpha"/>
<feOffset dy="1.33714"/>
<feGaussianBlur stdDeviation="0.668571"/>
<feComposite in2="hardAlpha" operator="out"/>
<feColorMatrix type="matrix" values="0 0 0 0 0 0 0 0 0 0 0 0 0 0 0 0 0 0 0.25 0"/>
<feBlend mode="normal" in2="BackgroundImageFix" result="effect1_dropShadow_270_3334"/>
<feBlend mode="normal" in="SourceGraphic" in2="effect1_dropShadow_270_3334" result="shape"/>
</filter>
<filter id="filter1_f_270_3334" x="301.733" y="126.245" width="52.6749" height="79.3362" filterUnits="userSpaceOnUse" color-interpolation-filters="sRGB">
<feFlood flood-opacity="0" result="BackgroundImageFix"/>
<feBlend mode="normal" in="SourceGraphic" in2="BackgroundImageFix" result="shape"/>
<feGaussianBlur stdDeviation="3.00857" result="effect1_foregroundBlur_270_3334"/>
</filter>
<filter id="filter2_f_270_3334" x="301.733" y="126.245" width="52.6749" height="79.3362" filterUnits="userSpaceOnUse" color-interpolation-filters="sRGB">
<feFlood flood-opacity="0" result="BackgroundImageFix"/>
<feBlend mode="normal" in="SourceGraphic" in2="BackgroundImageFix" result="shape"/>
<feGaussianBlur stdDeviation="3.00857" result="effect1_foregroundBlur_270_3334"/>
</filter>
</defs>
</svg>
