<svg width="393" height="419" viewBox="0 0 393 419" fill="none" xmlns="http://www.w3.org/2000/svg">
<ellipse cx="207" cy="289" rx="322" ry="289" fill="#FC829F"/>
<rect x="57" y="30" width="278" height="222" rx="9.36" fill="#FC829F"/>
<ellipse cx="142.717" cy="131.75" rx="46.3333" ry="37" fill="#FEFAFA"/>
<ellipse cx="150.825" cy="132.675" rx="19.6917" ry="15.725" fill="black"/>
<ellipse cx="249.284" cy="131.75" rx="46.3333" ry="37" fill="white"/>
<path d="M226.117 84.3684C231.785 83.2661 247.386 74.6648 275.478 85.1936" stroke="black" stroke-width="5" stroke-linecap="round"/>
<path d="M112.6 84.3684C118.268 83.2661 133.869 74.6648 161.961 85.1936" stroke="black" stroke-width="5" stroke-linecap="round"/>
<path d="M241.358 206.251C238.598 206.347 229.228 205.908 226.754 197.508" stroke="black" stroke-width="3" stroke-linecap="round"/>
<path d="M179.141 200.2C178.871 202.396 177.005 209.742 166.242 210.512" stroke="black" stroke-width="3" stroke-linecap="round"/>
<ellipse cx="57.5075" cy="19.0419" rx="57.5075" ry="19.0419" transform="matrix(0.987352 0.158544 -0.244181 0.96973 77.8828 150.25)" fill="#FC829F"/>
<ellipse cx="57.4614" cy="19.065" rx="57.4614" ry="19.065" transform="matrix(0.985901 -0.167332 0.257198 0.966359 216.85 160.23)" fill="#FC829F"/>
<ellipse cx="241.175" cy="132.675" rx="19.6917" ry="15.725" fill="black"/>
<path d="M229.556 202.787C221.006 205.881 205.139 218.025 175.329 207.118" stroke="black" stroke-width="3" stroke-linecap="round"/>
<ellipse cx="138.084" cy="124.35" rx="9.26667" ry="7.4" fill="#FDF6F7"/>
<ellipse cx="228.433" cy="124.35" rx="9.26666" ry="7.4" fill="#FFFBFC"/>
</svg>
