<svg width="41" height="41" viewBox="0 0 41 41" fill="none" xmlns="http://www.w3.org/2000/svg">
<g clip-path="url(#clip0_433_10605)">
<rect width="40.11" height="40.11" rx="9.36" fill="#406BF1"/>
<g filter="url(#filter0_d_433_10605)">
<circle cx="27.7457" cy="16.04" r="6.68571" fill="white"/>
<circle cx="27.7457" cy="16.04" r="3.34286" fill="black"/>
</g>
<circle cx="26.4086" cy="14.3686" r="1.67143" fill="white"/>
<g filter="url(#filter1_d_433_10605)">
<circle cx="12.3686" cy="16.04" r="6.68571" fill="white"/>
<circle cx="12.3686" cy="16.04" r="3.34286" fill="black"/>
</g>
<circle cx="10.6971" cy="14.3686" r="1.67143" fill="white"/>
<path d="M14.441 7.93573C13.7583 8.21289 11.9347 9.97561 8.3923 8.4771" stroke="black" stroke-width="1.00286" stroke-linecap="round"/>
<path d="M30.4868 7.93573C29.804 8.21289 27.9804 9.97561 24.438 8.4771" stroke="black" stroke-width="1.00286" stroke-linecap="round"/>
<ellipse cx="13.0371" cy="25.4" rx="8.69143" ry="6.68571" fill="#406BF1"/>
<ellipse cx="29.0829" cy="25.4" rx="8.69143" ry="6.68571" fill="#406BF1"/>
<path d="M22.6506 20.3658C22.4734 21.3989 24.1421 19.9074 25.0977 19.6137C25.7348 19.4179 26.0868 19.2502 26.7292 19.1123C27.548 18.9366 28.8248 18.9086 28.8248 18.9086C28.8248 18.9086 30.4125 18.8424 31.3845 19.0024C32.2806 19.15 32.791 19.2587 33.5926 19.6446C34.1759 19.9253 34.9966 20.5448 34.9966 20.5448C34.9966 20.5448 34.9848 19.8986 34.884 19.6989C34.3073 18.5554 33.374 19.3337 33.2614 18.4877C33.1735 17.827 31.8781 18.4657 30.9214 18.4877C30.2031 18.5043 29.8174 18.3124 29.1763 18.3603C28.4597 18.4137 28.5013 18.6279 27.8965 18.3133C27.7052 18.2139 27.6477 18.0583 27.4323 18.0157C26.9508 17.9206 26.7562 18.5963 26.265 18.8147C25.473 19.1669 24.9866 18.816 24.1695 19.0185C23.8489 19.0979 23.642 19.0719 23.3537 19.2692C22.946 19.5483 22.7341 19.8788 22.6506 20.3658Z" fill="#A2F4F9"/>
<path d="M6.60848 20.3445C6.40022 21.3809 8.11253 19.9056 9.07626 19.6245C9.71874 19.437 10.0755 19.2735 10.7214 19.1445C11.5449 18.9799 12.8213 18.9707 12.8213 18.9707C12.8213 18.9707 14.4097 18.9277 15.3759 19.1032C16.2667 19.265 16.7734 19.3819 17.5626 19.7819C18.1369 20.0729 18.938 20.7083 18.938 20.7083C18.938 20.7083 18.9458 20.0582 18.8512 19.8558C18.3097 18.6971 17.3536 19.466 17.2668 18.6135C17.199 17.9477 15.8853 18.5708 14.9289 18.5787C14.2107 18.5846 13.8311 18.3859 13.1892 18.4245C12.4716 18.4676 12.5066 18.6836 11.9119 18.3582C11.7238 18.2554 11.6711 18.098 11.4572 18.052C10.9789 17.9491 10.7641 18.6259 10.2667 18.8382C9.46477 19.1806 8.98939 18.8205 8.16685 19.012C7.84422 19.0871 7.63829 19.0578 7.34426 19.252C6.92843 19.5266 6.70666 19.8559 6.60848 20.3445Z" fill="#A2F4F9"/>
<path d="M29.4395 31.7514C29.3389 32.1372 28.8651 33.4061 27.3094 33.3004" stroke="black" stroke-width="0.668571" stroke-linecap="round"/>
<path d="M12.5469 33.1283C12.1665 33.2477 10.8396 33.5196 10.1037 32.1449" stroke="black" stroke-width="0.668571" stroke-linecap="round"/>
<path d="M12.7029 31.5204C14.3727 30.096 20.5236 25.8595 27.3612 31.223" stroke="black" stroke-width="0.668571" stroke-linecap="round"/>
</g>
<defs>
<filter id="filter0_d_433_10605" x="19.7229" y="9.35431" width="16.0457" height="16.0457" filterUnits="userSpaceOnUse" color-interpolation-filters="sRGB">
<feFlood flood-opacity="0" result="BackgroundImageFix"/>
<feColorMatrix in="SourceAlpha" type="matrix" values="0 0 0 0 0 0 0 0 0 0 0 0 0 0 0 0 0 0 127 0" result="hardAlpha"/>
<feOffset dy="1.33714"/>
<feGaussianBlur stdDeviation="0.668571"/>
<feComposite in2="hardAlpha" operator="out"/>
<feColorMatrix type="matrix" values="0 0 0 0 0 0 0 0 0 0 0 0 0 0 0 0 0 0 0.25 0"/>
<feBlend mode="normal" in2="BackgroundImageFix" result="effect1_dropShadow_433_10605"/>
<feBlend mode="normal" in="SourceGraphic" in2="effect1_dropShadow_433_10605" result="shape"/>
</filter>
<filter id="filter1_d_433_10605" x="4.34572" y="9.35431" width="16.0457" height="16.0457" filterUnits="userSpaceOnUse" color-interpolation-filters="sRGB">
<feFlood flood-opacity="0" result="BackgroundImageFix"/>
<feColorMatrix in="SourceAlpha" type="matrix" values="0 0 0 0 0 0 0 0 0 0 0 0 0 0 0 0 0 0 127 0" result="hardAlpha"/>
<feOffset dy="1.33714"/>
<feGaussianBlur stdDeviation="0.668571"/>
<feComposite in2="hardAlpha" operator="out"/>
<feColorMatrix type="matrix" values="0 0 0 0 0 0 0 0 0 0 0 0 0 0 0 0 0 0 0.25 0"/>
<feBlend mode="normal" in2="BackgroundImageFix" result="effect1_dropShadow_433_10605"/>
<feBlend mode="normal" in="SourceGraphic" in2="effect1_dropShadow_433_10605" result="shape"/>
</filter>
<clipPath id="clip0_433_10605">
<rect width="40.11" height="40.11" rx="9.36" fill="white"/>
</clipPath>
</defs>
</svg>
