<svg width="41" height="45" viewBox="0 0 41 45" fill="none" xmlns="http://www.w3.org/2000/svg">
<path d="M0 9.36001C0 4.19062 4.19061 0 9.36 0H30.7543C35.9237 0 40.1143 4.19061 40.1143 9.36V30.7543C40.1143 35.9237 35.9237 40.1143 30.7543 40.1143H9.36001C4.19062 40.1143 0 35.9237 0 30.7543V9.36001Z" fill="#406BF1"/>
<g filter="url(#filter0_d_70_158)">
<circle cx="27.7457" cy="18.0514" r="6.68571" fill="white"/>
<circle cx="27.7457" cy="18.0514" r="3.34286" fill="black"/>
</g>
<circle cx="26.4086" cy="16.38" r="1.67143" fill="white"/>
<g filter="url(#filter1_d_70_158)">
<circle cx="12.3686" cy="18.0514" r="6.68571" fill="white"/>
<circle cx="12.3686" cy="18.0514" r="3.34286" fill="black"/>
</g>
<circle cx="10.6972" cy="16.38" r="1.67143" fill="white"/>
<path d="M14.441 9.94714C13.7583 10.2243 11.9347 11.987 8.3923 10.4885" stroke="black" stroke-width="1.00286" stroke-linecap="round"/>
<path d="M30.4868 9.94714C29.804 10.2243 27.9804 11.987 24.438 10.4885" stroke="black" stroke-width="1.00286" stroke-linecap="round"/>
<ellipse cx="13.0371" cy="27.4114" rx="8.69143" ry="6.68571" fill="#406BF1"/>
<ellipse cx="29.0828" cy="27.4114" rx="8.69143" ry="6.68571" fill="#406BF1"/>
<path d="M22.6506 22.3773C22.4734 23.4103 24.1421 21.9189 25.0977 21.6252C25.7348 21.4294 26.0868 21.2616 26.7292 21.1238C27.548 20.9481 28.8248 20.92 28.8248 20.92C28.8248 20.92 30.4125 20.8538 31.3845 21.0139C32.2806 21.1614 32.791 21.2702 33.5926 21.656C34.1759 21.9367 34.9966 22.5563 34.9966 22.5563C34.9966 22.5563 34.9848 21.9101 34.884 21.7103C34.3073 20.5668 33.374 21.3451 33.2614 20.4992C33.1735 19.8385 31.8781 20.4772 30.9214 20.4992C30.2031 20.5157 29.8174 20.3239 29.1763 20.3717C28.4597 20.4252 28.5013 20.6393 27.8965 20.3248C27.7052 20.2253 27.6477 20.0697 27.4323 20.0272C26.9508 19.932 26.7562 20.6078 26.265 20.8262C25.473 21.1783 24.9866 20.8275 24.1695 21.03C23.8489 21.1094 23.642 21.0833 23.3537 21.2806C22.946 21.5597 22.7341 21.8903 22.6506 22.3773Z" fill="#A2F4F9"/>
<path d="M6.60847 22.3559C6.40021 23.3923 8.11252 21.9171 9.07624 21.6359C9.71872 21.4485 10.0755 21.285 10.7214 21.1559C11.5448 20.9914 12.8213 20.9822 12.8213 20.9822C12.8213 20.9822 14.4096 20.9392 15.3759 21.1146C16.2667 21.2764 16.7734 21.3934 17.5626 21.7934C18.1368 22.0844 18.938 22.7197 18.938 22.7197C18.938 22.7197 18.9458 22.0696 18.8512 21.8672C18.3097 20.7085 17.3536 21.4774 17.2668 20.6249C17.199 19.9591 15.8853 20.5822 14.9289 20.5901C14.2106 20.596 13.8311 20.3974 13.1892 20.4359C12.4715 20.479 12.5066 20.695 11.9119 20.3697C11.7238 20.2668 11.6711 20.1094 11.4572 20.0634C10.9789 19.9606 10.7641 20.6373 10.2667 20.8497C9.46475 21.1921 8.98937 20.8319 8.16683 21.0234C7.8442 21.0986 7.63828 21.0692 7.34424 21.2634C6.92841 21.5381 6.70665 21.8673 6.60847 22.3559Z" fill="#A2F4F9"/>
<g filter="url(#filter2_f_70_158)">
<path d="M33.956 16.2375C34.4111 17.9382 34.9638 18.7362 34.1628 18.9505C33.3619 19.1648 33.1919 16.6149 31.8662 14.8933C30.8719 13.6022 29.2006 12.6651 30.0016 12.4508C30.8025 12.2365 33.501 14.5367 33.956 16.2375Z" fill="#87D1D6" fill-opacity="0.55"/>
</g>
<g filter="url(#filter3_f_70_158)">
<path d="M23.2355 13.2076C24.5408 12.0262 24.9984 11.1701 25.5548 11.7848C26.1111 12.3995 23.9203 13.7151 22.994 15.6806C22.2993 17.1548 22.2288 19.0695 21.6725 18.4548C21.1161 17.8401 21.9302 14.3891 23.2355 13.2076Z" fill="#87D1D6" fill-opacity="0.55"/>
</g>
<g filter="url(#filter4_f_70_158)">
<path d="M18.2446 15.2346C18.6996 16.9354 19.2523 17.7334 18.4514 17.9477C17.6504 18.162 17.4805 15.6121 16.1548 13.8905C15.1605 12.5993 13.4892 11.6623 14.2902 11.448C15.0911 11.2337 17.7896 13.5339 18.2446 15.2346Z" fill="#87D1D6" fill-opacity="0.55"/>
</g>
<g filter="url(#filter5_f_70_158)">
<path d="M7.5241 13.5419C8.82942 12.3605 9.28694 11.5044 9.84333 12.1191C10.3997 12.7338 8.20883 14.0493 7.28257 16.0149C6.58788 17.489 6.51742 19.4038 5.96103 18.7891C5.40465 18.1744 6.21878 14.7233 7.5241 13.5419Z" fill="#87D1D6" fill-opacity="0.55"/>
</g>
<path d="M29.4395 33.7628C29.3389 34.1486 28.8651 35.4175 27.3094 35.3118" stroke="black" stroke-width="0.668571" stroke-linecap="round"/>
<path d="M12.5469 35.1397C12.1665 35.2592 10.8396 35.531 10.1036 34.1563" stroke="black" stroke-width="0.668571" stroke-linecap="round"/>
<path d="M12.7029 33.5319C14.3727 32.1074 20.5236 27.8709 27.3612 33.2344" stroke="black" stroke-width="0.668571" stroke-linecap="round"/>
<defs>
<filter id="filter0_d_70_158" x="19.7229" y="11.3657" width="16.0457" height="16.0457" filterUnits="userSpaceOnUse" color-interpolation-filters="sRGB">
<feFlood flood-opacity="0" result="BackgroundImageFix"/>
<feColorMatrix in="SourceAlpha" type="matrix" values="0 0 0 0 0 0 0 0 0 0 0 0 0 0 0 0 0 0 127 0" result="hardAlpha"/>
<feOffset dy="1.33714"/>
<feGaussianBlur stdDeviation="0.668571"/>
<feComposite in2="hardAlpha" operator="out"/>
<feColorMatrix type="matrix" values="0 0 0 0 0 0 0 0 0 0 0 0 0 0 0 0 0 0 0.25 0"/>
<feBlend mode="normal" in2="BackgroundImageFix" result="effect1_dropShadow_70_158"/>
<feBlend mode="normal" in="SourceGraphic" in2="effect1_dropShadow_70_158" result="shape"/>
</filter>
<filter id="filter1_d_70_158" x="4.34572" y="11.3657" width="16.0457" height="16.0457" filterUnits="userSpaceOnUse" color-interpolation-filters="sRGB">
<feFlood flood-opacity="0" result="BackgroundImageFix"/>
<feColorMatrix in="SourceAlpha" type="matrix" values="0 0 0 0 0 0 0 0 0 0 0 0 0 0 0 0 0 0 127 0" result="hardAlpha"/>
<feOffset dy="1.33714"/>
<feGaussianBlur stdDeviation="0.668571"/>
<feComposite in2="hardAlpha" operator="out"/>
<feColorMatrix type="matrix" values="0 0 0 0 0 0 0 0 0 0 0 0 0 0 0 0 0 0 0.25 0"/>
<feBlend mode="normal" in2="BackgroundImageFix" result="effect1_dropShadow_70_158"/>
<feBlend mode="normal" in="SourceGraphic" in2="effect1_dropShadow_70_158" result="shape"/>
</filter>
<filter id="filter2_f_70_158" x="27.7852" y="10.4312" width="8.78992" height="10.5377" filterUnits="userSpaceOnUse" color-interpolation-filters="sRGB">
<feFlood flood-opacity="0" result="BackgroundImageFix"/>
<feBlend mode="normal" in="SourceGraphic" in2="BackgroundImageFix" result="shape"/>
<feGaussianBlur stdDeviation="1.00286" result="effect1_foregroundBlur_70_158"/>
</filter>
<filter id="filter3_f_70_158" x="19.4892" y="9.57442" width="8.16054" height="11.0041" filterUnits="userSpaceOnUse" color-interpolation-filters="sRGB">
<feFlood flood-opacity="0" result="BackgroundImageFix"/>
<feBlend mode="normal" in="SourceGraphic" in2="BackgroundImageFix" result="shape"/>
<feGaussianBlur stdDeviation="1.00286" result="effect1_foregroundBlur_70_158"/>
</filter>
<filter id="filter4_f_70_158" x="12.0738" y="9.42837" width="8.78993" height="10.5377" filterUnits="userSpaceOnUse" color-interpolation-filters="sRGB">
<feFlood flood-opacity="0" result="BackgroundImageFix"/>
<feBlend mode="normal" in="SourceGraphic" in2="BackgroundImageFix" result="shape"/>
<feGaussianBlur stdDeviation="1.00286" result="effect1_foregroundBlur_70_158"/>
</filter>
<filter id="filter5_f_70_158" x="3.77773" y="9.90871" width="8.16054" height="11.0041" filterUnits="userSpaceOnUse" color-interpolation-filters="sRGB">
<feFlood flood-opacity="0" result="BackgroundImageFix"/>
<feBlend mode="normal" in="SourceGraphic" in2="BackgroundImageFix" result="shape"/>
<feGaussianBlur stdDeviation="1.00286" result="effect1_foregroundBlur_70_158"/>
</filter>
</defs>
</svg>
