<svg width="42" height="41" viewBox="0 0 42 41" fill="none" xmlns="http://www.w3.org/2000/svg">
<rect x="1.00287" width="40.1143" height="40.1143" rx="9.36" fill="#8077EA"/>
<g filter="url(#filter0_d_70_212)">
<g filter="url(#filter1_f_70_212)">
<path d="M28.8244 18.8357C30.3482 16.3931 29.8373 11.6773 28.8037 11.4613L26.8308 16.573L24.4028 22.2468C25.4364 22.4628 28.5711 20.0473 28.8244 18.8357Z" fill="#05C1FF" fill-opacity="0.35"/>
</g>
<path d="M20.0571 17.7171C20.0571 21.4096 17.0638 24.4029 13.3714 24.4029C9.679 24.4029 6.6857 21.4096 6.6857 17.7171C6.6857 14.0247 9.679 11.0314 13.3714 11.0314C17.0638 11.0314 20.0571 14.0247 20.0571 17.7171Z" fill="white"/>
<path d="M35.4343 17.7171C35.4343 21.4096 32.441 24.4029 28.7485 24.4029C25.0561 24.4029 22.0628 21.4096 22.0628 17.7171C22.0628 14.0247 25.0561 11.0314 28.7485 11.0314C32.441 11.0314 35.4343 14.0247 35.4343 17.7171Z" fill="white"/>
</g>
<circle cx="13.3714" cy="17.7172" r="3.34286" fill="black"/>
<circle cx="28.7486" cy="17.7172" r="3.34286" fill="black"/>
<circle cx="11.3657" cy="16.38" r="1.33714" fill="white"/>
<circle cx="26.7428" cy="16.38" r="1.33714" fill="white"/>
<ellipse cx="30.6233" cy="29.2052" rx="9.69429" ry="7.02" transform="rotate(-11.514 30.6233 29.2052)" fill="#8077EA"/>
<ellipse cx="11.4777" cy="29.9028" rx="9.69429" ry="7.02" transform="rotate(19.4353 11.4777 29.9028)" fill="#8077EA"/>
<path d="M17.0486 32.1364C17.0486 32.1364 21.8891 31.9625 25.9139 30.0857" stroke="black" stroke-width="0.668571" stroke-linecap="round"/>
<path d="M27.6534 31.1284C27.2714 31.0146 26.0195 30.4975 26.1787 28.9463" stroke="black" stroke-width="0.668571" stroke-linecap="round"/>
<rect x="9.63559" y="3.00854" width="13.3714" height="10.0286" transform="rotate(15.1185 9.63559 3.00854)" fill="#8077EA"/>
<rect x="19.7228" y="6.50787" width="13.3714" height="10.0286" transform="rotate(-13.6918 19.7228 6.50787)" fill="#8077EA"/>
<path d="M9.35999 9.74664C10.3418 9.93429 15.0251 10.321 18.7177 13.3744" stroke="black" stroke-width="1.00286" stroke-linecap="round"/>
<path d="M23.3454 13.5343C24.1853 12.9922 27.8402 10.0385 32.6195 9.69801" stroke="black" stroke-width="1.00286" stroke-linecap="round"/>
<defs>
<filter id="filter0_d_70_212" x="5.34856" y="11.0314" width="31.4229" height="16.0457" filterUnits="userSpaceOnUse" color-interpolation-filters="sRGB">
<feFlood flood-opacity="0" result="BackgroundImageFix"/>
<feColorMatrix in="SourceAlpha" type="matrix" values="0 0 0 0 0 0 0 0 0 0 0 0 0 0 0 0 0 0 127 0" result="hardAlpha"/>
<feOffset dy="1.33714"/>
<feGaussianBlur stdDeviation="0.668571"/>
<feComposite in2="hardAlpha" operator="out"/>
<feColorMatrix type="matrix" values="0 0 0 0 0 0 0 0 0 0 0 0 0 0 0 0 0 0 0.25 0"/>
<feBlend mode="normal" in2="BackgroundImageFix" result="effect1_dropShadow_70_212"/>
<feBlend mode="normal" in="SourceGraphic" in2="effect1_dropShadow_70_212" result="shape"/>
</filter>
<filter id="filter1_f_70_212" x="18.3857" y="5.44416" width="17.4147" height="22.8334" filterUnits="userSpaceOnUse" color-interpolation-filters="sRGB">
<feFlood flood-opacity="0" result="BackgroundImageFix"/>
<feBlend mode="normal" in="SourceGraphic" in2="BackgroundImageFix" result="shape"/>
<feGaussianBlur stdDeviation="3.00857" result="effect1_foregroundBlur_70_212"/>
</filter>
</defs>
</svg>
