<svg width="44" height="41" viewBox="0 0 44 41" fill="none" xmlns="http://www.w3.org/2000/svg">
<rect x="1.33713" y="0.33429" width="40.1143" height="40.1143" rx="9.36" fill="#FF763C"/>
<g filter="url(#filter0_d_70_124)">
<circle cx="13.3714" cy="17.0122" r="6.68571" fill="white"/>
<circle cx="17.0485" cy="17.3829" r="3.34286" fill="black"/>
</g>
<g filter="url(#filter1_d_70_124)">
<circle cx="28.7486" cy="16.38" r="6.68571" fill="white"/>
<circle cx="25.4057" cy="17.3828" r="3.34286" fill="black"/>
</g>
<path d="M17.9553 2.078L20.4798 16.4011L7.82591 12.5145L17.9553 2.078Z" fill="#FF763C"/>
<path d="M21.5456 3.17775L33.2908 10.8524L21.6224 17.2078L21.5456 3.17775Z" fill="#FF763C"/>
<path d="M19.7354 17.1277C17.6586 16.2606 13.9299 15.0102 7.54718 11.7744" stroke="black" stroke-width="1.33714" stroke-linecap="round"/>
<path d="M22.7499 16.9315C24.7295 15.8987 28.05 13.8475 34.5694 11.0404" stroke="black" stroke-width="1.33714" stroke-linecap="round"/>
<rect x="10.1039" y="27.7457" width="22.0629" height="9.36" rx="4.68" fill="white"/>
<path d="M13.1125 32.4257L17.0769 31.6234L18.5323 31.4129C20.02 31.1976 21.53 31.1841 23.0213 31.3726L25.0058 31.6234L29.5843 32.4257" stroke="black" stroke-width="0.334286" stroke-linecap="round"/>
<path d="M13.4258 32.4052C13.4148 30.993 12.717 29.7907 11.74 29.3087C11.2433 29.0636 10.7756 29.5321 10.78 30.0859L10.8165 34.7656C10.8209 35.3194 11.2958 35.7805 11.7886 35.5277C12.7579 35.0304 13.4369 33.8174 13.4258 32.4052Z" fill="black"/>
<path d="M29.1248 32.1993C29.1864 33.5931 29.8827 34.759 30.8191 35.2189C31.3162 35.4631 31.7695 34.979 31.745 34.4257L31.5384 29.7504C31.514 29.1971 31.0198 28.7549 30.5461 29.042C29.6539 29.5828 29.0632 30.8055 29.1248 32.1993Z" fill="black"/>
<path d="M10.1426 32.6871C10.1575 33.9364 10.5961 35.0159 11.2266 35.5513C11.6487 35.9098 12.1342 35.4614 12.1276 34.9076L12.0741 30.42C12.0675 29.8661 11.5716 29.4294 11.158 29.7978C10.5405 30.3481 10.1278 31.4377 10.1426 32.6871Z" fill="black"/>
<path d="M32.6211 31.9553C32.5495 30.6047 31.9358 29.4714 31.1149 28.9918C30.6381 28.7133 30.1829 29.1945 30.2098 29.746L30.4463 34.5955C30.4734 35.1504 30.9796 35.5766 31.414 35.2303C32.1891 34.6125 32.693 33.3101 32.6211 31.9553Z" fill="black"/>
<path d="M10.0663 32.269C10.0802 33.4392 10.4436 34.457 10.9724 34.9985C11.3594 35.3948 11.8493 34.9645 11.8427 34.4106L11.7912 30.0856C11.7846 29.5318 11.2846 29.1133 10.9072 29.5186C10.3914 30.0726 10.0523 31.0987 10.0663 32.269Z" fill="black"/>
<path d="M31.9447 31.9321C31.9568 30.7619 31.6162 29.7363 31.0995 29.1831C30.7215 28.7783 30.2221 29.1976 30.2164 29.7514L30.1715 34.0765C30.1657 34.6303 30.6563 35.0599 31.0427 34.6631C31.5707 34.1207 31.9325 33.1024 31.9447 31.9321Z" fill="black"/>
<defs>
<filter id="filter0_d_70_124" x="5.34856" y="10.3265" width="16.38" height="16.0457" filterUnits="userSpaceOnUse" color-interpolation-filters="sRGB">
<feFlood flood-opacity="0" result="BackgroundImageFix"/>
<feColorMatrix in="SourceAlpha" type="matrix" values="0 0 0 0 0 0 0 0 0 0 0 0 0 0 0 0 0 0 127 0" result="hardAlpha"/>
<feOffset dy="1.33714"/>
<feGaussianBlur stdDeviation="0.668571"/>
<feComposite in2="hardAlpha" operator="out"/>
<feColorMatrix type="matrix" values="0 0 0 0 0 0 0 0 0 0 0 0 0 0 0 0 0 0 0.25 0"/>
<feBlend mode="normal" in2="BackgroundImageFix" result="effect1_dropShadow_70_124"/>
<feBlend mode="normal" in="SourceGraphic" in2="effect1_dropShadow_70_124" result="shape"/>
</filter>
<filter id="filter1_d_70_124" x="20.7257" y="9.69427" width="16.0457" height="16.0457" filterUnits="userSpaceOnUse" color-interpolation-filters="sRGB">
<feFlood flood-opacity="0" result="BackgroundImageFix"/>
<feColorMatrix in="SourceAlpha" type="matrix" values="0 0 0 0 0 0 0 0 0 0 0 0 0 0 0 0 0 0 127 0" result="hardAlpha"/>
<feOffset dy="1.33714"/>
<feGaussianBlur stdDeviation="0.668571"/>
<feComposite in2="hardAlpha" operator="out"/>
<feColorMatrix type="matrix" values="0 0 0 0 0 0 0 0 0 0 0 0 0 0 0 0 0 0 0.25 0"/>
<feBlend mode="normal" in2="BackgroundImageFix" result="effect1_dropShadow_70_124"/>
<feBlend mode="normal" in="SourceGraphic" in2="effect1_dropShadow_70_124" result="shape"/>
</filter>
</defs>
</svg>
