<svg width="41" height="41" viewBox="0 0 41 41" fill="none" xmlns="http://www.w3.org/2000/svg">
<rect width="40.1143" height="40.1143" rx="9.36" fill="#FC829F"/>
<circle cx="12.3686" cy="18.3857" r="6.68571" fill="#FEFAFA"/>
<circle cx="13.5386" cy="18.5529" r="2.84143" fill="black"/>
<circle cx="27.7457" cy="18.3857" r="6.68571" fill="white"/>
<path d="M24.4029 9.8241C25.2208 9.62491 27.4719 8.07071 31.5255 9.9732" stroke="black" stroke-width="1.00286" stroke-linecap="round"/>
<path d="M8.02286 9.8241C8.84078 9.62491 11.0919 8.07071 15.1455 9.9732" stroke="black" stroke-width="1.00286" stroke-linecap="round"/>
<path d="M26.6022 31.8477C26.2039 31.8651 24.8517 31.7858 24.4948 30.2679" stroke="black" stroke-width="0.668571" stroke-linecap="round"/>
<path d="M17.6245 30.7543C17.5855 31.151 17.3163 32.4785 15.7632 32.6177" stroke="black" stroke-width="0.668571" stroke-linecap="round"/>
<ellipse cx="10.5355" cy="26.7127" rx="8.35714" ry="3.40341" transform="rotate(11.3694 10.5355 26.7127)" fill="#FC829F"/>
<ellipse cx="31.9478" cy="25.1236" rx="8.35714" ry="3.40341" transform="rotate(-11.999 31.9478 25.1236)" fill="#FC829F"/>
<circle cx="26.5757" cy="18.5529" r="2.84143" fill="black"/>
<path d="M24.8991 31.2217C23.6654 31.7808 21.3759 33.9751 17.0744 32.0044" stroke="black" stroke-width="0.668571" stroke-linecap="round"/>
<circle cx="11.7" cy="17.0486" r="1.33714" fill="#FDF6F7"/>
<circle cx="24.7372" cy="17.0486" r="1.33714" fill="#FFFBFC"/>
</svg>
