<svg width="169" height="169" viewBox="0 0 169 169" fill="none" xmlns="http://www.w3.org/2000/svg">
<g clip-path="url(#clip0_727_2615)">
<rect width="169" height="169" rx="20" fill="url(#paint0_linear_727_2615)"/>
<rect width="169" height="169" rx="20" fill="url(#paint1_radial_727_2615)"/>
<rect width="169" height="169" rx="20" fill="url(#paint2_radial_727_2615)"/>
<rect x="0.5" y="0.5" width="168" height="168" rx="19.5" stroke="white" stroke-opacity="0.51"/>
<g filter="url(#filter0_i_727_2615)">
<path fill-rule="evenodd" clip-rule="evenodd" d="M144 168.027C144 127.695 117.361 95 84.5 95C51.6391 95 25 127.695 25 168.027H144Z" fill="#4A43A0"/>
<ellipse cx="71.3589" cy="123.071" rx="10.1978" ry="11.1797" fill="white"/>
<ellipse cx="94.4009" cy="123.071" rx="10.1978" ry="11.1797" fill="white"/>
<ellipse cx="74.2394" cy="120.335" rx="5.13782" ry="5.5478" fill="black"/>
<ellipse cx="97.7477" cy="120.335" rx="5.13782" ry="5.5478" fill="black"/>
<ellipse cx="75.5626" cy="118.402" rx="2.56891" ry="2.7739" fill="white"/>
<ellipse cx="99.0718" cy="118.402" rx="2.56891" ry="2.7739" fill="white"/>
<path d="M63.6519 111.873C63.6519 111.873 70.3466 107.754 77.8198 111.873" stroke="#1E1E1E" stroke-linecap="round"/>
<path d="M87.3179 109.202C87.3179 109.202 95.1803 103.234 101.486 109.202" stroke="#1E1E1E" stroke-linecap="round"/>
<ellipse cx="101.084" cy="142.77" rx="11.4789" ry="4.55991" fill="#4A43A0"/>
<ellipse cx="76.6731" cy="142.77" rx="10.8977" ry="4.55991" fill="#4A43A0"/>
<path d="M72.2925 146.187C72.2925 146.187 83.658 141.228 95.0234 142.909" stroke="#1E1E1E" stroke-linecap="round"/>
</g>
<g filter="url(#filter1_d_727_2615)">
<path d="M130.639 116.375C130.506 116.375 130.389 116.425 130.289 116.525C130.206 116.625 130.164 116.742 130.164 116.875V118.25H127.239V116.825C127.239 114.625 128.273 113.525 130.339 113.525H130.464C130.598 113.525 130.706 113.475 130.789 113.375C130.889 113.275 130.939 113.158 130.939 113.025V110.05C130.939 109.917 130.889 109.8 130.789 109.7C130.706 109.6 130.598 109.55 130.464 109.55H128.564C128.431 109.55 128.314 109.6 128.214 109.7C128.131 109.8 128.089 109.917 128.089 110.05V111.325H124.989V110.125C124.989 107.925 126.023 106.825 128.089 106.825H130.864C132.931 106.825 133.964 107.925 133.964 110.125V113.075C133.964 115.275 132.931 116.375 130.864 116.375H130.639ZM126.964 121.45C126.964 120.95 127.139 120.525 127.489 120.175C127.839 119.825 128.264 119.65 128.764 119.65C129.264 119.65 129.689 119.825 130.039 120.175C130.389 120.525 130.564 120.95 130.564 121.45C130.564 121.95 130.389 122.375 130.039 122.725C129.689 123.075 129.264 123.25 128.764 123.25C128.264 123.25 127.839 123.075 127.489 122.725C127.139 122.375 126.964 121.95 126.964 121.45Z" fill="white"/>
</g>
<g filter="url(#filter2_d_727_2615)">
<path d="M117.639 106.403C117.506 106.403 117.389 106.453 117.289 106.553C117.206 106.653 117.164 106.77 117.164 106.903V108.278H114.239V106.853C114.239 104.653 115.273 103.553 117.339 103.553H117.464C117.598 103.553 117.706 103.503 117.789 103.403C117.889 103.303 117.939 103.186 117.939 103.053V100.078C117.939 99.9447 117.889 99.8281 117.789 99.7281C117.706 99.6281 117.598 99.5781 117.464 99.5781H115.564C115.431 99.5781 115.314 99.6281 115.214 99.7281C115.131 99.8281 115.089 99.9447 115.089 100.078V101.353H111.989V100.153C111.989 97.9531 113.023 96.8531 115.089 96.8531H117.864C119.931 96.8531 120.964 97.9531 120.964 100.153V103.103C120.964 105.303 119.931 106.403 117.864 106.403H117.639ZM113.964 111.478C113.964 110.978 114.139 110.553 114.489 110.203C114.839 109.853 115.264 109.678 115.764 109.678C116.264 109.678 116.689 109.853 117.039 110.203C117.389 110.553 117.564 110.978 117.564 111.478C117.564 111.978 117.389 112.403 117.039 112.753C116.689 113.103 116.264 113.278 115.764 113.278C115.264 113.278 114.839 113.103 114.489 112.753C114.139 112.403 113.964 111.978 113.964 111.478Z" fill="white"/>
</g>
<g filter="url(#filter3_d_727_2615)">
<path d="M130.639 94.375C130.506 94.375 130.389 94.425 130.289 94.525C130.206 94.625 130.164 94.7417 130.164 94.875V96.25H127.239V94.825C127.239 92.625 128.273 91.525 130.339 91.525H130.464C130.598 91.525 130.706 91.475 130.789 91.375C130.889 91.275 130.939 91.1583 130.939 91.025V88.05C130.939 87.9167 130.889 87.8 130.789 87.7C130.706 87.6 130.598 87.55 130.464 87.55H128.564C128.431 87.55 128.314 87.6 128.214 87.7C128.131 87.8 128.089 87.9167 128.089 88.05V89.325H124.989V88.125C124.989 85.925 126.023 84.825 128.089 84.825H130.864C132.931 84.825 133.964 85.925 133.964 88.125V91.075C133.964 93.275 132.931 94.375 130.864 94.375H130.639ZM126.964 99.45C126.964 98.95 127.139 98.525 127.489 98.175C127.839 97.825 128.264 97.65 128.764 97.65C129.264 97.65 129.689 97.825 130.039 98.175C130.389 98.525 130.564 98.95 130.564 99.45C130.564 99.95 130.389 100.375 130.039 100.725C129.689 101.075 129.264 101.25 128.764 101.25C128.264 101.25 127.839 101.075 127.489 100.725C127.139 100.375 126.964 99.95 126.964 99.45Z" fill="white"/>
</g>
<path d="M15.8154 62.1758C12.6807 62.1758 10.7764 60.125 10.7764 56.7119C10.7764 53.3062 12.7173 51.248 15.7568 51.248C17.7344 51.248 19.2651 52.127 19.9902 53.6504C20.1367 53.9287 20.21 54.2144 20.21 54.478C20.21 55.0566 19.8218 55.4302 19.2358 55.4302C18.7378 55.4302 18.4229 55.2104 18.1812 54.6978C17.6978 53.6211 16.8335 53.0791 15.7788 53.0791C14.1089 53.0791 13.0322 54.478 13.0322 56.7046C13.0322 58.9604 14.0942 60.3521 15.7861 60.3521C16.8994 60.3521 17.7344 59.8467 18.2104 58.7847C18.4375 58.2866 18.7158 58.0889 19.1846 58.0889C19.8071 58.0889 20.2173 58.4844 20.2173 59.0703C20.2173 59.3193 20.1587 59.5537 20.0488 59.8101C19.3896 61.2749 17.8149 62.1758 15.8154 62.1758ZM22.6855 62.1538C22.041 62.1538 21.6162 61.751 21.6162 61.0405V55.064C21.6162 54.3828 22.0337 53.9873 22.6489 53.9873C23.2495 53.9873 23.6597 54.3828 23.6597 55.064V55.5767H23.7036C23.9087 54.6025 24.5532 54.0239 25.3369 54.0239C25.6226 54.0239 25.8496 54.0898 26.0034 54.2217C26.2085 54.3828 26.311 54.6465 26.311 55.0127C26.311 55.3496 26.2085 55.606 26.0034 55.7817C25.7983 55.9575 25.4907 56.0527 25.0732 56.0601C24.0991 56.0747 23.7549 56.624 23.7549 57.5542V61.0405C23.7549 61.751 23.3374 62.1538 22.6855 62.1538ZM30.4272 62.1685C27.9736 62.1685 26.5308 60.6523 26.5308 58.1108C26.5308 55.584 28.0029 53.98 30.3247 53.98C32.5513 53.98 34.0454 55.5034 34.0454 57.6348C34.0454 58.228 33.7085 58.5649 33.1152 58.5649H28.6328V58.6602C28.6328 59.8247 29.3359 60.5864 30.4199 60.5864C31.2036 60.5864 31.7163 60.3228 32.2949 59.6416C32.522 59.4072 32.7124 59.3267 32.9907 59.3267C33.4521 59.3267 33.8257 59.6196 33.8257 60.1104C33.8257 60.2788 33.7744 60.4546 33.6792 60.6304C33.1592 61.5972 31.9434 62.1685 30.4272 62.1685ZM28.6548 57.2539H31.9873C31.9434 56.2285 31.2842 55.562 30.3467 55.562C29.4092 55.562 28.728 56.2505 28.6548 57.2539ZM37.4731 62.1245C35.979 62.1245 34.8438 61.1577 34.8438 59.7441C34.8438 58.3159 35.9424 57.4883 37.9053 57.3711L39.8828 57.2539V56.7339C39.8828 56.0015 39.3701 55.5767 38.5645 55.5767C37.9126 55.5767 37.5171 55.7891 37.041 56.4043C36.8066 56.668 36.5356 56.7998 36.1914 56.7998C35.6714 56.7998 35.2979 56.4629 35.2979 55.9795C35.2979 55.811 35.3345 55.6572 35.4077 55.4961C35.7739 54.5586 37.0337 53.98 38.6597 53.98C40.6738 53.98 41.9849 55.02 41.9849 56.6021V61.0771C41.9849 61.7876 41.5527 62.1538 40.9448 62.1538C40.3662 62.1538 39.9634 61.8315 39.9194 61.2017V60.7988H39.8755C39.436 61.6338 38.4546 62.1245 37.4731 62.1245ZM38.1763 60.5791C39.1138 60.5791 39.8828 59.9712 39.8828 59.1216V58.5503L38.2275 58.6528C37.4292 58.7114 36.9751 59.0703 36.9751 59.627C36.9751 60.2129 37.4585 60.5791 38.1763 60.5791ZM43.9404 59.9932V55.7598H43.5303C43.0249 55.7598 42.7026 55.4521 42.7026 54.9541C42.7026 54.4561 43.0249 54.1484 43.5303 54.1484H43.9404V53.2769C43.9404 52.5884 44.3433 52.1636 45.0098 52.1636C45.6763 52.1636 46.0791 52.5884 46.0791 53.2769V54.1484H46.8335C47.3389 54.1484 47.6538 54.4634 47.6538 54.9541C47.6538 55.4448 47.3389 55.7598 46.8335 55.7598H46.0791V59.5171C46.0791 60.0737 46.2695 60.3081 46.731 60.3447L46.8701 60.3594C47.3975 60.418 47.6831 60.6377 47.6831 61.1357C47.6831 61.7656 47.0679 62.0879 46.167 62.0879H46.0938C44.6655 62.0879 43.9404 61.3774 43.9404 59.9932ZM52.1948 62.1685C49.7412 62.1685 48.2983 60.6523 48.2983 58.1108C48.2983 55.584 49.7705 53.98 52.0923 53.98C54.3188 53.98 55.813 55.5034 55.813 57.6348C55.813 58.228 55.4761 58.5649 54.8828 58.5649H50.4004V58.6602C50.4004 59.8247 51.1035 60.5864 52.1875 60.5864C52.9712 60.5864 53.4839 60.3228 54.0625 59.6416C54.2896 59.4072 54.48 59.3267 54.7583 59.3267C55.2197 59.3267 55.5933 59.6196 55.5933 60.1104C55.5933 60.2788 55.542 60.4546 55.4468 60.6304C54.9268 61.5972 53.7109 62.1685 52.1948 62.1685ZM50.4224 57.2539H53.7549C53.7109 56.2285 53.0518 55.562 52.1143 55.562C51.1768 55.562 50.4956 56.2505 50.4224 57.2539ZM62.2144 62.1245C60.7202 62.1245 59.585 61.1577 59.585 59.7441C59.585 58.3159 60.6836 57.4883 62.6465 57.3711L64.624 57.2539V56.7339C64.624 56.0015 64.1113 55.5767 63.3057 55.5767C62.6538 55.5767 62.2583 55.7891 61.7822 56.4043C61.5479 56.668 61.2769 56.7998 60.9326 56.7998C60.4126 56.7998 60.0391 56.4629 60.0391 55.9795C60.0391 55.811 60.0757 55.6572 60.1489 55.4961C60.5151 54.5586 61.7749 53.98 63.4009 53.98C65.415 53.98 66.7261 55.02 66.7261 56.6021V61.0771C66.7261 61.7876 66.2939 62.1538 65.686 62.1538C65.1074 62.1538 64.7046 61.8315 64.6606 61.2017V60.7988H64.6167C64.1772 61.6338 63.1958 62.1245 62.2144 62.1245ZM62.9175 60.5791C63.855 60.5791 64.624 59.9712 64.624 59.1216V58.5503L62.9688 58.6528C62.1704 58.7114 61.7163 59.0703 61.7163 59.627C61.7163 60.2129 62.1997 60.5791 62.9175 60.5791ZM72.1533 62.1538C71.5308 62.1538 71.084 61.7729 71.084 61.0405V55.064C71.084 54.3975 71.4722 53.9873 72.1167 53.9873C72.7612 53.9873 73.186 54.3975 73.186 55.0713V55.5107H73.23C73.6475 54.5366 74.4385 54.002 75.647 54.002C77.3901 54.002 78.3716 55.1006 78.3716 56.939V61.0405C78.3716 61.7729 77.9248 62.1538 77.3022 62.1538C76.6724 62.1538 76.2329 61.7729 76.2329 61.0405V57.3857C76.2329 56.3604 75.7495 55.7744 74.79 55.7744C73.8306 55.7744 73.2227 56.4775 73.2227 57.4956V61.0405C73.2227 61.7729 72.7832 62.1538 72.1533 62.1538ZM83.3374 62.1685C80.8838 62.1685 79.4409 60.6523 79.4409 58.1108C79.4409 55.584 80.9131 53.98 83.2349 53.98C85.4614 53.98 86.9556 55.5034 86.9556 57.6348C86.9556 58.228 86.6187 58.5649 86.0254 58.5649H81.543V58.6602C81.543 59.8247 82.2461 60.5864 83.3301 60.5864C84.1138 60.5864 84.6265 60.3228 85.2051 59.6416C85.4321 59.4072 85.6226 59.3267 85.9009 59.3267C86.3623 59.3267 86.7358 59.6196 86.7358 60.1104C86.7358 60.2788 86.6846 60.4546 86.5894 60.6304C86.0693 61.5972 84.8535 62.1685 83.3374 62.1685ZM81.5649 57.2539H84.8975C84.8535 56.2285 84.1943 55.562 83.2568 55.562C82.3193 55.562 81.6382 56.2505 81.5649 57.2539ZM90.6543 62.1538C89.9146 62.1538 89.5264 61.8096 89.2993 61.0332L87.7173 55.562C87.6367 55.2837 87.6001 55.1079 87.6001 54.9028C87.6001 54.3682 88.0322 53.9873 88.6328 53.9873C89.1675 53.9873 89.5117 54.3096 89.6362 54.8955L90.8008 59.9712H90.8447L92.0605 54.9688C92.1997 54.3315 92.6172 53.9873 93.269 53.9873C93.9062 53.9873 94.3237 54.3315 94.4629 54.9688L95.686 59.9712H95.73L96.9019 54.8809C97.019 54.3096 97.3633 53.9873 97.8906 53.9873C98.4839 53.9873 98.9014 54.3608 98.9014 54.8955C98.9014 55.0933 98.8647 55.269 98.7842 55.5474L97.2021 61.0259C96.9824 61.8022 96.5723 62.1538 95.8325 62.1538C95.0488 62.1538 94.6313 61.8169 94.4482 61.0186L93.2544 56.4482H93.2104L92.0239 61.0332C91.8408 61.8096 91.416 62.1538 90.6543 62.1538ZM105.757 62.1245C103.794 62.1245 102.556 60.5718 102.556 58.0596C102.556 55.5693 103.801 54.0239 105.771 54.0239C106.907 54.0239 107.786 54.6245 108.167 55.4961H108.21V52.3906C108.21 51.6582 108.657 51.27 109.28 51.27C109.91 51.27 110.349 51.6582 110.349 52.3906V61.0698C110.349 61.7803 109.91 62.1538 109.287 62.1538C108.672 62.1538 108.21 61.7876 108.21 61.0698V60.6157H108.174C107.83 61.4946 106.965 62.1245 105.757 62.1245ZM106.482 60.4033C107.544 60.4033 108.225 59.5098 108.225 58.0742C108.225 56.646 107.544 55.7378 106.482 55.7378C105.405 55.7378 104.746 56.6387 104.746 58.0742C104.746 59.5171 105.405 60.4033 106.482 60.4033ZM115.388 62.1685C112.935 62.1685 111.492 60.6523 111.492 58.1108C111.492 55.584 112.964 53.98 115.286 53.98C117.512 53.98 119.006 55.5034 119.006 57.6348C119.006 58.228 118.669 58.5649 118.076 58.5649H113.594V58.6602C113.594 59.8247 114.297 60.5864 115.381 60.5864C116.165 60.5864 116.677 60.3228 117.256 59.6416C117.483 59.4072 117.673 59.3267 117.952 59.3267C118.413 59.3267 118.787 59.6196 118.787 60.1104C118.787 60.2788 118.735 60.4546 118.64 60.6304C118.12 61.5972 116.904 62.1685 115.388 62.1685ZM113.616 57.2539H116.948C116.904 56.2285 116.245 55.562 115.308 55.562C114.37 55.562 113.689 56.2505 113.616 57.2539ZM123.694 62.1685C121.328 62.1685 119.827 60.6157 119.827 58.0742C119.827 55.562 121.321 53.98 123.679 53.98C125.254 53.98 126.565 54.7417 126.99 55.855C127.063 56.0381 127.107 56.2285 127.107 56.3823C127.107 56.9097 126.697 57.2173 126.191 57.2173C125.767 57.2173 125.51 57.0488 125.291 56.6606C124.902 55.9722 124.426 55.6572 123.745 55.6572C122.661 55.6572 121.995 56.5508 121.995 58.0669C121.995 59.6123 122.661 60.4912 123.73 60.4912C124.478 60.4912 124.939 60.125 125.269 59.5684C125.554 59.1216 125.789 58.9385 126.243 58.9385C126.741 58.9385 127.144 59.2681 127.144 59.7954C127.144 59.9639 127.1 60.1396 127.004 60.3521C126.536 61.4214 125.195 62.1685 123.694 62.1685ZM129.392 53.1743C128.748 53.1743 128.25 52.6836 128.25 52.0684C128.25 51.4458 128.748 50.9624 129.392 50.9624C130.037 50.9624 130.535 51.4458 130.535 52.0684C130.535 52.6836 130.037 53.1743 129.392 53.1743ZM129.392 62.1538C128.726 62.1538 128.323 61.7363 128.323 61.0405V55.1079C128.323 54.4121 128.726 53.9873 129.392 53.9873C130.051 53.9873 130.461 54.4121 130.461 55.1079V61.0405C130.461 61.7363 130.051 62.1538 129.392 62.1538ZM135.09 62.1685C133.289 62.1685 132.087 61.5239 131.714 60.6011C131.663 60.4619 131.633 60.3228 131.633 60.2056C131.633 59.7148 132 59.3853 132.498 59.3853C132.842 59.3853 133.135 59.5391 133.428 59.8687C133.845 60.418 134.329 60.667 135.142 60.667C135.918 60.667 136.423 60.3447 136.423 59.8247C136.423 59.3999 136.152 59.1729 135.383 59.0044L134.065 58.7261C132.527 58.3965 131.75 57.6128 131.75 56.4482C131.75 54.9468 133.047 53.98 135.083 53.98C136.709 53.98 137.903 54.7197 138.159 55.606C138.188 55.7158 138.21 55.8184 138.21 55.9209C138.21 56.353 137.939 56.6533 137.39 56.6533C137.112 56.6533 136.804 56.5508 136.614 56.3237C136.24 55.8477 135.815 55.4814 135.046 55.4814C134.321 55.4814 133.816 55.8257 133.816 56.3311C133.816 56.7412 134.124 57.0122 134.907 57.1807L136.204 57.459C137.874 57.8105 138.562 58.4258 138.562 59.5977C138.562 61.1577 137.163 62.1685 135.09 62.1685ZM140.73 53.1743C140.085 53.1743 139.587 52.6836 139.587 52.0684C139.587 51.4458 140.085 50.9624 140.73 50.9624C141.375 50.9624 141.873 51.4458 141.873 52.0684C141.873 52.6836 141.375 53.1743 140.73 53.1743ZM140.73 62.1538C140.063 62.1538 139.661 61.7363 139.661 61.0405V55.1079C139.661 54.4121 140.063 53.9873 140.73 53.9873C141.389 53.9873 141.799 54.4121 141.799 55.1079V61.0405C141.799 61.7363 141.389 62.1538 140.73 62.1538ZM146.831 62.1685C144.458 62.1685 142.942 60.645 142.942 58.0669C142.942 55.5254 144.48 53.98 146.831 53.98C149.182 53.98 150.72 55.5181 150.72 58.0669C150.72 60.6523 149.204 62.1685 146.831 62.1685ZM146.831 60.5352C147.878 60.5352 148.545 59.6489 148.545 58.0742C148.545 56.5142 147.871 55.6133 146.831 55.6133C145.791 55.6133 145.11 56.5142 145.11 58.0742C145.11 59.6489 145.776 60.5352 146.831 60.5352ZM152.896 62.1538C152.273 62.1538 151.826 61.7729 151.826 61.0405V55.064C151.826 54.3975 152.214 53.9873 152.859 53.9873C153.503 53.9873 153.928 54.3975 153.928 55.0713V55.5107H153.972C154.39 54.5366 155.181 54.002 156.389 54.002C158.132 54.002 159.114 55.1006 159.114 56.939V61.0405C159.114 61.7729 158.667 62.1538 158.044 62.1538C157.415 62.1538 156.975 61.7729 156.975 61.0405V57.3857C156.975 56.3604 156.492 55.7744 155.532 55.7744C154.573 55.7744 153.965 56.4775 153.965 57.4956V61.0405C153.965 61.7729 153.525 62.1538 152.896 62.1538Z" fill="white"/>
<path d="M34.1207 42V35.52H35.0612V38.3145H38.3012V35.52H39.2462V42H38.3012V39.201H35.0612V42H34.1207ZM42.6659 42.135C42.1829 42.135 41.7584 42.03 41.3924 41.82C41.0294 41.607 40.7459 41.3115 40.5419 40.9335C40.3409 40.5525 40.2404 40.1115 40.2404 39.6105C40.2404 39.0795 40.3394 38.619 40.5374 38.229C40.7384 37.839 41.0174 37.5375 41.3744 37.3245C41.7314 37.1115 42.1469 37.005 42.6209 37.005C43.1159 37.005 43.5374 37.1205 43.8854 37.3515C44.2334 37.5795 44.4929 37.905 44.6639 38.328C44.8379 38.751 44.9069 39.2535 44.8709 39.8355H43.9304V39.4935C43.9244 38.9295 43.8164 38.5125 43.6064 38.2425C43.3994 37.9725 43.0829 37.8375 42.6569 37.8375C42.1859 37.8375 41.8319 37.986 41.5949 38.283C41.3579 38.58 41.2394 39.009 41.2394 39.57C41.2394 40.104 41.3579 40.518 41.5949 40.812C41.8319 41.103 42.1739 41.2485 42.6209 41.2485C42.9149 41.2485 43.1684 41.1825 43.3814 41.0505C43.5974 40.9155 43.7654 40.7235 43.8854 40.4745L44.8079 40.767C44.6189 41.202 44.3324 41.5395 43.9484 41.7795C43.5644 42.0165 43.1369 42.135 42.6659 42.135ZM40.9334 39.8355V39.102H44.4029V39.8355H40.9334ZM46.4496 44.16L47.3901 41.5995L47.4036 42.3555L45.2841 37.14H46.2651L47.8491 41.1675H47.5611L49.0731 37.14H50.0271L47.3451 44.16H46.4496ZM49.9213 43.0755L49.9798 42.657C50.1088 42.666 50.2093 42.642 50.2813 42.585C50.3533 42.528 50.4013 42.4485 50.4253 42.3465C50.4493 42.2445 50.4538 42.129 50.4388 42H49.9213V40.9155H50.9158V42.09C50.9158 42.444 50.8303 42.711 50.6593 42.891C50.4913 43.071 50.2453 43.1325 49.9213 43.0755ZM55.796 42.135C55.436 42.135 55.1345 42.069 54.8915 41.937C54.6485 41.802 54.464 41.625 54.338 41.406C54.215 41.184 54.1535 40.941 54.1535 40.677C54.1535 40.431 54.197 40.215 54.284 40.029C54.371 39.843 54.5 39.6855 54.671 39.5565C54.842 39.4245 55.052 39.318 55.301 39.237C55.517 39.174 55.7615 39.1185 56.0345 39.0705C56.3075 39.0225 56.594 38.9775 56.894 38.9355C57.197 38.8935 57.497 38.8515 57.794 38.8095L57.452 38.9985C57.458 38.6175 57.377 38.3355 57.209 38.1525C57.044 37.9665 56.759 37.8735 56.354 37.8735C56.099 37.8735 55.865 37.9335 55.652 38.0535C55.439 38.1705 55.2905 38.3655 55.2065 38.6385L54.329 38.3685C54.449 37.9515 54.677 37.62 55.013 37.374C55.352 37.128 55.802 37.005 56.363 37.005C56.798 37.005 57.176 37.08 57.497 37.23C57.821 37.377 58.058 37.611 58.208 37.932C58.286 38.091 58.334 38.259 58.352 38.436C58.37 38.613 58.379 38.8035 58.379 39.0075V42H57.5465V40.8885L57.7085 41.0325C57.5075 41.4045 57.251 41.682 56.939 41.865C56.63 42.045 56.249 42.135 55.796 42.135ZM55.9625 41.3655C56.2295 41.3655 56.459 41.319 56.651 41.226C56.843 41.13 56.9975 41.0085 57.1145 40.8615C57.2315 40.7145 57.308 40.5615 57.344 40.4025C57.395 40.2585 57.4235 40.0965 57.4295 39.9165C57.4385 39.7365 57.443 39.5925 57.443 39.4845L57.749 39.597C57.452 39.642 57.182 39.6825 56.939 39.7185C56.696 39.7545 56.4755 39.7905 56.2775 39.8265C56.0825 39.8595 55.9085 39.9 55.7555 39.948C55.6265 39.993 55.511 40.047 55.409 40.11C55.31 40.173 55.2305 40.2495 55.1705 40.3395C55.1135 40.4295 55.085 40.539 55.085 40.668C55.085 40.794 55.1165 40.911 55.1795 41.019C55.2425 41.124 55.3385 41.208 55.4675 41.271C55.5965 41.334 55.7615 41.3655 55.9625 41.3655ZM59.5475 42V37.14H60.3845V38.319L60.2675 38.166C60.3275 38.01 60.4055 37.8675 60.5015 37.7385C60.5975 37.6065 60.7085 37.4985 60.8345 37.4145C60.9575 37.3245 61.094 37.2555 61.244 37.2075C61.397 37.1565 61.553 37.1265 61.712 37.1175C61.871 37.1055 62.024 37.113 62.171 37.14V38.022C62.012 37.98 61.835 37.968 61.64 37.986C61.448 38.004 61.271 38.0655 61.109 38.1705C60.956 38.2695 60.8345 38.3895 60.7445 38.5305C60.6575 38.6715 60.5945 38.829 60.5555 39.003C60.5165 39.174 60.497 39.3555 60.497 39.5475V42H59.5475ZM65.0956 42.135C64.6126 42.135 64.1881 42.03 63.8221 41.82C63.4591 41.607 63.1756 41.3115 62.9716 40.9335C62.7706 40.5525 62.6701 40.1115 62.6701 39.6105C62.6701 39.0795 62.7691 38.619 62.9671 38.229C63.1681 37.839 63.4471 37.5375 63.8041 37.3245C64.1611 37.1115 64.5766 37.005 65.0506 37.005C65.5456 37.005 65.9671 37.1205 66.3151 37.3515C66.6631 37.5795 66.9226 37.905 67.0936 38.328C67.2676 38.751 67.3366 39.2535 67.3006 39.8355H66.3601V39.4935C66.3541 38.9295 66.2461 38.5125 66.0361 38.2425C65.8291 37.9725 65.5126 37.8375 65.0866 37.8375C64.6156 37.8375 64.2616 37.986 64.0246 38.283C63.7876 38.58 63.6691 39.009 63.6691 39.57C63.6691 40.104 63.7876 40.518 64.0246 40.812C64.2616 41.103 64.6036 41.2485 65.0506 41.2485C65.3446 41.2485 65.5981 41.1825 65.8111 41.0505C66.0271 40.9155 66.1951 40.7235 66.3151 40.4745L67.2376 40.767C67.0486 41.202 66.7621 41.5395 66.3781 41.7795C65.9941 42.0165 65.5666 42.135 65.0956 42.135ZM63.3631 39.8355V39.102H66.8326V39.8355H63.3631ZM70.7689 44.16L71.7094 41.5995L71.7229 42.3555L69.6034 37.14H70.5844L72.1684 41.1675H71.8804L73.3924 37.14H74.3464L71.6644 44.16H70.7689ZM76.9861 42.135C76.5001 42.135 76.0786 42.0255 75.7216 41.8065C75.3646 41.5875 75.0886 41.286 74.8936 40.902C74.7016 40.515 74.6056 40.0695 74.6056 39.5655C74.6056 39.0585 74.7046 38.613 74.9026 38.229C75.1006 37.842 75.3781 37.542 75.7351 37.329C76.0921 37.113 76.5091 37.005 76.9861 37.005C77.4721 37.005 77.8936 37.1145 78.2506 37.3335C78.6076 37.5525 78.8836 37.854 79.0786 38.238C79.2736 38.622 79.3711 39.0645 79.3711 39.5655C79.3711 40.0725 79.2721 40.5195 79.0741 40.9065C78.8791 41.2905 78.6031 41.592 78.2461 41.811C77.8891 42.027 77.4691 42.135 76.9861 42.135ZM76.9861 41.2485C77.4511 41.2485 77.7976 41.0925 78.0256 40.7805C78.2566 40.4655 78.3721 40.0605 78.3721 39.5655C78.3721 39.0585 78.2551 38.6535 78.0211 38.3505C77.7901 38.0445 77.4451 37.8915 76.9861 37.8915C76.6711 37.8915 76.4116 37.9635 76.2076 38.1075C76.0036 38.2485 75.8521 38.445 75.7531 38.697C75.6541 38.946 75.6046 39.2355 75.6046 39.5655C75.6046 40.0755 75.7216 40.4835 75.9556 40.7895C76.1896 41.0955 76.5331 41.2485 76.9861 41.2485ZM82.1915 42.1305C81.8555 42.1305 81.5735 42.0765 81.3455 41.9685C81.1175 41.8605 80.9315 41.7195 80.7875 41.5455C80.6465 41.3685 80.5385 41.1765 80.4635 40.9695C80.3885 40.7625 80.3375 40.56 80.3105 40.362C80.2835 40.164 80.27 39.99 80.27 39.84V37.14H81.224V39.5295C81.224 39.7185 81.239 39.9135 81.269 40.1145C81.302 40.3125 81.362 40.497 81.449 40.668C81.539 40.839 81.6635 40.977 81.8225 41.082C81.9845 41.187 82.1945 41.2395 82.4525 41.2395C82.6205 41.2395 82.7795 41.2125 82.9295 41.1585C83.0795 41.1015 83.21 41.0115 83.321 40.8885C83.435 40.7655 83.5235 40.6035 83.5865 40.4025C83.6525 40.2015 83.6855 39.957 83.6855 39.669L84.2705 39.8895C84.2705 40.3305 84.188 40.7205 84.023 41.0595C83.858 41.3955 83.621 41.658 83.312 41.847C83.003 42.036 82.6295 42.1305 82.1915 42.1305ZM83.798 42V40.596H83.6855V37.14H84.635V42H83.798ZM89.5303 42.1305C89.1943 42.1305 88.9123 42.0765 88.6843 41.9685C88.4563 41.8605 88.2703 41.7195 88.1263 41.5455C87.9853 41.3685 87.8773 41.1765 87.8023 40.9695C87.7273 40.7625 87.6763 40.56 87.6493 40.362C87.6223 40.164 87.6088 39.99 87.6088 39.84V37.14H88.5628V39.5295C88.5628 39.7185 88.5778 39.9135 88.6078 40.1145C88.6408 40.3125 88.7008 40.497 88.7878 40.668C88.8778 40.839 89.0023 40.977 89.1613 41.082C89.3233 41.187 89.5333 41.2395 89.7913 41.2395C89.9593 41.2395 90.1183 41.2125 90.2683 41.1585C90.4183 41.1015 90.5488 41.0115 90.6598 40.8885C90.7738 40.7655 90.8623 40.6035 90.9253 40.4025C90.9913 40.2015 91.0243 39.957 91.0243 39.669L91.6093 39.8895C91.6093 40.3305 91.5268 40.7205 91.3618 41.0595C91.1968 41.3955 90.9598 41.658 90.6508 41.847C90.3418 42.036 89.9683 42.1305 89.5303 42.1305ZM91.1368 42V40.596H91.0243V37.14H91.9738V42H91.1368ZM96.647 42V39.6105C96.647 39.4215 96.6305 39.228 96.5975 39.03C96.5675 38.829 96.5075 38.643 96.4175 38.472C96.3305 38.301 96.206 38.163 96.044 38.058C95.885 37.953 95.6765 37.9005 95.4185 37.9005C95.2505 37.9005 95.0915 37.929 94.9415 37.986C94.7915 38.04 94.6595 38.1285 94.5455 38.2515C94.4345 38.3745 94.346 38.5365 94.28 38.7375C94.217 38.9385 94.1855 39.183 94.1855 39.471L93.6005 39.2505C93.6005 38.8095 93.683 38.421 93.848 38.085C94.013 37.746 94.25 37.482 94.559 37.293C94.868 37.104 95.2415 37.0095 95.6795 37.0095C96.0155 37.0095 96.2975 37.0635 96.5255 37.1715C96.7535 37.2795 96.938 37.422 97.079 37.599C97.223 37.773 97.3325 37.9635 97.4075 38.1705C97.4825 38.3775 97.5335 38.58 97.5605 38.778C97.5875 38.976 97.601 39.15 97.601 39.3V42H96.647ZM93.2315 42V37.14H94.073V38.544H94.1855V42H93.2315ZM100.642 42.135C100.189 42.135 99.7975 42.0225 99.4675 41.7975C99.1405 41.5725 98.887 41.2665 98.707 40.8795C98.53 40.4895 98.4415 40.0515 98.4415 39.5655C98.4415 39.0765 98.5315 38.64 98.7115 38.256C98.8915 37.869 99.1465 37.5645 99.4765 37.3425C99.8095 37.1175 100.204 37.005 100.66 37.005C101.119 37.005 101.505 37.1175 101.817 37.3425C102.132 37.5645 102.369 37.869 102.528 38.256C102.69 38.643 102.771 39.0795 102.771 39.5655C102.771 40.0515 102.69 40.488 102.528 40.875C102.366 41.262 102.127 41.5695 101.812 41.7975C101.497 42.0225 101.107 42.135 100.642 42.135ZM100.773 41.2845C101.082 41.2845 101.334 41.211 101.529 41.064C101.724 40.917 101.866 40.7145 101.956 40.4565C102.046 40.1985 102.091 39.9015 102.091 39.5655C102.091 39.2295 102.045 38.9325 101.952 38.6745C101.862 38.4165 101.721 38.2155 101.529 38.0715C101.34 37.9275 101.098 37.8555 100.804 37.8555C100.492 37.8555 100.236 37.932 100.035 38.085C99.8335 38.238 99.6835 38.4435 99.5845 38.7015C99.4885 38.9595 99.4405 39.2475 99.4405 39.5655C99.4405 39.8865 99.4885 40.1775 99.5845 40.4385C99.6835 40.6965 99.8305 40.902 100.026 41.055C100.224 41.208 100.473 41.2845 100.773 41.2845ZM102.091 42V38.5035H101.983V35.52H102.928V42H102.091ZM106.343 42.135C105.86 42.135 105.435 42.03 105.069 41.82C104.706 41.607 104.423 41.3115 104.219 40.9335C104.018 40.5525 103.917 40.1115 103.917 39.6105C103.917 39.0795 104.016 38.619 104.214 38.229C104.415 37.839 104.694 37.5375 105.051 37.3245C105.408 37.1115 105.824 37.005 106.298 37.005C106.793 37.005 107.214 37.1205 107.562 37.3515C107.91 37.5795 108.17 37.905 108.341 38.328C108.515 38.751 108.584 39.2535 108.548 39.8355H107.607V39.4935C107.601 38.9295 107.493 38.5125 107.283 38.2425C107.076 37.9725 106.76 37.8375 106.334 37.8375C105.863 37.8375 105.509 37.986 105.272 38.283C105.035 38.58 104.916 39.009 104.916 39.57C104.916 40.104 105.035 40.518 105.272 40.812C105.509 41.103 105.851 41.2485 106.298 41.2485C106.592 41.2485 106.845 41.1825 107.058 41.0505C107.274 40.9155 107.442 40.7235 107.562 40.4745L108.485 40.767C108.296 41.202 108.009 41.5395 107.625 41.7795C107.241 42.0165 106.814 42.135 106.343 42.135ZM104.61 39.8355V39.102H108.08V39.8355H104.61ZM111.636 42.135C111.138 42.135 110.715 42.024 110.367 41.802C110.019 41.58 109.752 41.2755 109.566 40.8885C109.383 40.5015 109.29 40.062 109.287 39.57C109.29 39.069 109.386 38.6265 109.575 38.2425C109.764 37.8555 110.034 37.5525 110.385 37.3335C110.736 37.1145 111.158 37.005 111.65 37.005C112.181 37.005 112.634 37.137 113.009 37.401C113.387 37.665 113.636 38.0265 113.756 38.4855L112.82 38.7555C112.727 38.4825 112.574 38.271 112.361 38.121C112.151 37.968 111.909 37.8915 111.636 37.8915C111.327 37.8915 111.074 37.965 110.876 38.112C110.678 38.256 110.531 38.454 110.435 38.706C110.339 38.958 110.289 39.246 110.286 39.57C110.289 40.071 110.403 40.476 110.628 40.785C110.856 41.094 111.192 41.2485 111.636 41.2485C111.939 41.2485 112.184 41.1795 112.37 41.0415C112.559 40.9005 112.703 40.6995 112.802 40.4385L113.756 40.6635C113.597 41.1375 113.334 41.502 112.968 41.757C112.602 42.009 112.158 42.135 111.636 42.135ZM114.631 36.3435V35.43H115.571V36.3435H114.631ZM114.631 42V37.14H115.571V42H114.631ZM118.853 42.135C118.4 42.135 118.008 42.0225 117.678 41.7975C117.351 41.5725 117.098 41.2665 116.918 40.8795C116.741 40.4895 116.652 40.0515 116.652 39.5655C116.652 39.0765 116.742 38.64 116.922 38.256C117.102 37.869 117.357 37.5645 117.687 37.3425C118.02 37.1175 118.415 37.005 118.871 37.005C119.33 37.005 119.715 37.1175 120.027 37.3425C120.342 37.5645 120.579 37.869 120.738 38.256C120.9 38.643 120.981 39.0795 120.981 39.5655C120.981 40.0515 120.9 40.488 120.738 40.875C120.576 41.262 120.338 41.5695 120.023 41.7975C119.708 42.0225 119.318 42.135 118.853 42.135ZM118.983 41.2845C119.292 41.2845 119.544 41.211 119.739 41.064C119.934 40.917 120.077 40.7145 120.167 40.4565C120.257 40.1985 120.302 39.9015 120.302 39.5655C120.302 39.2295 120.255 38.9325 120.162 38.6745C120.072 38.4165 119.931 38.2155 119.739 38.0715C119.55 37.9275 119.309 37.8555 119.015 37.8555C118.703 37.8555 118.446 37.932 118.245 38.085C118.044 38.238 117.894 38.4435 117.795 38.7015C117.699 38.9595 117.651 39.2475 117.651 39.5655C117.651 39.8865 117.699 40.1775 117.795 40.4385C117.894 40.6965 118.041 40.902 118.236 41.055C118.434 41.208 118.683 41.2845 118.983 41.2845ZM120.302 42V38.5035H120.194V35.52H121.139V42H120.302ZM124.554 42.135C124.071 42.135 123.646 42.03 123.28 41.82C122.917 41.607 122.634 41.3115 122.43 40.9335C122.229 40.5525 122.128 40.1115 122.128 39.6105C122.128 39.0795 122.227 38.619 122.425 38.229C122.626 37.839 122.905 37.5375 123.262 37.3245C123.619 37.1115 124.035 37.005 124.509 37.005C125.004 37.005 125.425 37.1205 125.773 37.3515C126.121 37.5795 126.381 37.905 126.552 38.328C126.726 38.751 126.795 39.2535 126.759 39.8355H125.818V39.4935C125.812 38.9295 125.704 38.5125 125.494 38.2425C125.287 37.9725 124.971 37.8375 124.545 37.8375C124.074 37.8375 123.72 37.986 123.483 38.283C123.246 38.58 123.127 39.009 123.127 39.57C123.127 40.104 123.246 40.518 123.483 40.812C123.72 41.103 124.062 41.2485 124.509 41.2485C124.803 41.2485 125.056 41.1825 125.269 41.0505C125.485 40.9155 125.653 40.7235 125.773 40.4745L126.696 40.767C126.507 41.202 126.22 41.5395 125.836 41.7795C125.452 42.0165 125.025 42.135 124.554 42.135ZM122.821 39.8355V39.102H126.291V39.8355H122.821ZM129.699 42.135C129.246 42.135 128.854 42.0225 128.524 41.7975C128.197 41.5725 127.944 41.2665 127.764 40.8795C127.587 40.4895 127.498 40.0515 127.498 39.5655C127.498 39.0765 127.588 38.64 127.768 38.256C127.948 37.869 128.203 37.5645 128.533 37.3425C128.866 37.1175 129.261 37.005 129.717 37.005C130.176 37.005 130.561 37.1175 130.873 37.3425C131.188 37.5645 131.425 37.869 131.584 38.256C131.746 38.643 131.827 39.0795 131.827 39.5655C131.827 40.0515 131.746 40.488 131.584 40.875C131.422 41.262 131.184 41.5695 130.869 41.7975C130.554 42.0225 130.164 42.135 129.699 42.135ZM129.829 41.2845C130.138 41.2845 130.39 41.211 130.585 41.064C130.78 40.917 130.923 40.7145 131.013 40.4565C131.103 40.1985 131.148 39.9015 131.148 39.5655C131.148 39.2295 131.101 38.9325 131.008 38.6745C130.918 38.4165 130.777 38.2155 130.585 38.0715C130.396 37.9275 130.155 37.8555 129.861 37.8555C129.549 37.8555 129.292 37.932 129.091 38.085C128.89 38.238 128.74 38.4435 128.641 38.7015C128.545 38.9595 128.497 39.2475 128.497 39.5655C128.497 39.8865 128.545 40.1775 128.641 40.4385C128.74 40.6965 128.887 40.902 129.082 41.055C129.28 41.208 129.529 41.2845 129.829 41.2845ZM131.148 42V38.5035H131.04V35.52H131.985V42H131.148ZM134.45 40.2405C134.45 40.0245 134.466 39.822 134.499 39.633C134.535 39.444 134.601 39.264 134.697 39.093C134.778 38.931 134.873 38.8005 134.981 38.7015C135.092 38.5995 135.212 38.5005 135.341 38.4045C135.473 38.3055 135.611 38.1795 135.755 38.0265C135.875 37.8945 135.954 37.761 135.993 37.626C136.035 37.491 136.056 37.3455 136.056 37.1895C136.056 37.0755 136.043 36.969 136.016 36.87C135.989 36.771 135.944 36.6855 135.881 36.6135C135.785 36.4935 135.663 36.4095 135.516 36.3615C135.369 36.3105 135.216 36.285 135.057 36.285C134.913 36.285 134.775 36.3045 134.643 36.3435C134.514 36.3825 134.406 36.4425 134.319 36.5235C134.226 36.6015 134.157 36.699 134.112 36.816C134.07 36.93 134.051 37.0545 134.054 37.1895H133.064C133.088 36.9075 133.16 36.6435 133.28 36.3975C133.4 36.1515 133.562 35.952 133.766 35.799C133.94 35.661 134.138 35.559 134.36 35.493C134.582 35.424 134.804 35.3895 135.026 35.3895C135.344 35.3895 135.644 35.439 135.926 35.538C136.211 35.637 136.448 35.7975 136.637 36.0195C136.775 36.1755 136.878 36.354 136.947 36.555C137.019 36.753 137.055 36.9585 137.055 37.1715C137.055 37.4565 136.994 37.7205 136.871 37.9635C136.751 38.2065 136.596 38.4285 136.407 38.6295C136.308 38.7345 136.208 38.8305 136.106 38.9175C136.004 39.0015 135.909 39.084 135.822 39.165C135.735 39.246 135.663 39.3345 135.606 39.4305C135.525 39.5685 135.479 39.693 135.467 39.804C135.455 39.912 135.449 40.0575 135.449 40.2405H134.45ZM134.454 42V40.911H135.449V42H134.454Z" fill="white"/>
</g>
<defs>
<filter id="filter0_i_727_2615" x="25" y="95" width="119" height="150.054" filterUnits="userSpaceOnUse" color-interpolation-filters="sRGB">
<feFlood flood-opacity="0" result="BackgroundImageFix"/>
<feBlend mode="normal" in="SourceGraphic" in2="BackgroundImageFix" result="shape"/>
<feColorMatrix in="SourceAlpha" type="matrix" values="0 0 0 0 0 0 0 0 0 0 0 0 0 0 0 0 0 0 127 0" result="hardAlpha"/>
<feOffset dy="4"/>
<feGaussianBlur stdDeviation="2"/>
<feComposite in2="hardAlpha" operator="arithmetic" k2="-1" k3="1"/>
<feColorMatrix type="matrix" values="0 0 0 0 0 0 0 0 0 0 0 0 0 0 0 0 0 0 0.25 0"/>
<feBlend mode="normal" in2="shape" result="effect1_innerShadow_727_2615"/>
</filter>
<filter id="filter1_d_727_2615" x="124.989" y="106.825" width="10.9751" height="18.425" filterUnits="userSpaceOnUse" color-interpolation-filters="sRGB">
<feFlood flood-opacity="0" result="BackgroundImageFix"/>
<feColorMatrix in="SourceAlpha" type="matrix" values="0 0 0 0 0 0 0 0 0 0 0 0 0 0 0 0 0 0 127 0" result="hardAlpha"/>
<feOffset dx="1" dy="1"/>
<feGaussianBlur stdDeviation="0.5"/>
<feComposite in2="hardAlpha" operator="out"/>
<feColorMatrix type="matrix" values="0 0 0 0 1 0 0 0 0 1 0 0 0 0 1 0 0 0 0.25 0"/>
<feBlend mode="normal" in2="BackgroundImageFix" result="effect1_dropShadow_727_2615"/>
<feBlend mode="normal" in="SourceGraphic" in2="effect1_dropShadow_727_2615" result="shape"/>
</filter>
<filter id="filter2_d_727_2615" x="111.989" y="96.853" width="10.9751" height="18.425" filterUnits="userSpaceOnUse" color-interpolation-filters="sRGB">
<feFlood flood-opacity="0" result="BackgroundImageFix"/>
<feColorMatrix in="SourceAlpha" type="matrix" values="0 0 0 0 0 0 0 0 0 0 0 0 0 0 0 0 0 0 127 0" result="hardAlpha"/>
<feOffset dx="1" dy="1"/>
<feGaussianBlur stdDeviation="0.5"/>
<feComposite in2="hardAlpha" operator="out"/>
<feColorMatrix type="matrix" values="0 0 0 0 1 0 0 0 0 1 0 0 0 0 1 0 0 0 0.25 0"/>
<feBlend mode="normal" in2="BackgroundImageFix" result="effect1_dropShadow_727_2615"/>
<feBlend mode="normal" in="SourceGraphic" in2="effect1_dropShadow_727_2615" result="shape"/>
</filter>
<filter id="filter3_d_727_2615" x="124.989" y="84.825" width="10.9751" height="18.425" filterUnits="userSpaceOnUse" color-interpolation-filters="sRGB">
<feFlood flood-opacity="0" result="BackgroundImageFix"/>
<feColorMatrix in="SourceAlpha" type="matrix" values="0 0 0 0 0 0 0 0 0 0 0 0 0 0 0 0 0 0 127 0" result="hardAlpha"/>
<feOffset dx="1" dy="1"/>
<feGaussianBlur stdDeviation="0.5"/>
<feComposite in2="hardAlpha" operator="out"/>
<feColorMatrix type="matrix" values="0 0 0 0 1 0 0 0 0 1 0 0 0 0 1 0 0 0 0.25 0"/>
<feBlend mode="normal" in2="BackgroundImageFix" result="effect1_dropShadow_727_2615"/>
<feBlend mode="normal" in="SourceGraphic" in2="effect1_dropShadow_727_2615" result="shape"/>
</filter>
<linearGradient id="paint0_linear_727_2615" x1="172.169" y1="-13.3205" x2="-20.4795" y2="162.428" gradientUnits="userSpaceOnUse">
<stop stop-color="#A19FFF"/>
<stop offset="1" stop-color="#1D1D33"/>
</linearGradient>
<radialGradient id="paint1_radial_727_2615" cx="0" cy="0" r="1" gradientUnits="userSpaceOnUse" gradientTransform="translate(162.897 166.301) rotate(-125.697) scale(166.84 237.081)">
<stop offset="0.085" stop-color="#4A43A0"/>
<stop offset="1" stop-color="#488B9F" stop-opacity="0"/>
</radialGradient>
<radialGradient id="paint2_radial_727_2615" cx="0" cy="0" r="1" gradientUnits="userSpaceOnUse" gradientTransform="translate(-38.7879 188.658) rotate(-52.4572) scale(158.894)">
<stop stop-color="white" stop-opacity="0.9"/>
<stop offset="1" stop-color="#41798D" stop-opacity="0"/>
</radialGradient>
<clipPath id="clip0_727_2615">
<rect width="169" height="169" rx="10" fill="white"/>
</clipPath>
</defs>
</svg>
