<svg width="169" height="169" viewBox="0 0 169 169" fill="none" xmlns="http://www.w3.org/2000/svg">
<g clip-path="url(#clip0_730_2700)">
<rect width="169" height="169" rx="20" fill="url(#paint0_linear_730_2700)"/>
<rect width="169" height="169" rx="20" fill="url(#paint1_radial_730_2700)"/>
<rect width="169" height="169" rx="20" fill="url(#paint2_radial_730_2700)"/>
<rect x="0.5" y="0.5" width="168" height="168" rx="19.5" stroke="white" stroke-opacity="0.51"/>
<g filter="url(#filter0_i_730_2700)">
<path fill-rule="evenodd" clip-rule="evenodd" d="M144 168.027C144 127.695 117.361 95 84.5 95C51.6391 95 25 127.695 25 168.027H144Z" fill="#4A43A0"/>
<ellipse cx="71.3589" cy="123.071" rx="10.1978" ry="11.1797" fill="white"/>
<ellipse cx="94.4009" cy="123.071" rx="10.1978" ry="11.1797" fill="white"/>
<ellipse cx="74.2394" cy="120.335" rx="5.13782" ry="5.5478" fill="black"/>
<ellipse cx="97.7477" cy="120.335" rx="5.13782" ry="5.5478" fill="black"/>
<ellipse cx="75.5626" cy="118.402" rx="2.56891" ry="2.7739" fill="white"/>
<ellipse cx="99.0718" cy="118.402" rx="2.56891" ry="2.7739" fill="white"/>
<path d="M63.6519 111.873C63.6519 111.873 70.3466 107.754 77.8198 111.873" stroke="#1E1E1E" stroke-linecap="round"/>
<path d="M87.3179 109.202C87.3179 109.202 95.1803 103.234 101.486 109.202" stroke="#1E1E1E" stroke-linecap="round"/>
<ellipse cx="101.084" cy="142.77" rx="11.4789" ry="4.55991" fill="#4A43A0"/>
<ellipse cx="76.6731" cy="142.77" rx="10.8977" ry="4.55991" fill="#4A43A0"/>
<path d="M72.2925 146.187C72.2925 146.187 83.658 141.228 95.0234 142.909" stroke="#1E1E1E" stroke-linecap="round"/>
</g>
<g filter="url(#filter1_d_730_2700)">
<path d="M130.639 116.375C130.506 116.375 130.389 116.425 130.289 116.525C130.206 116.625 130.164 116.742 130.164 116.875V118.25H127.239V116.825C127.239 114.625 128.273 113.525 130.339 113.525H130.464C130.598 113.525 130.706 113.475 130.789 113.375C130.889 113.275 130.939 113.158 130.939 113.025V110.05C130.939 109.917 130.889 109.8 130.789 109.7C130.706 109.6 130.598 109.55 130.464 109.55H128.564C128.431 109.55 128.314 109.6 128.214 109.7C128.131 109.8 128.089 109.917 128.089 110.05V111.325H124.989V110.125C124.989 107.925 126.023 106.825 128.089 106.825H130.864C132.931 106.825 133.964 107.925 133.964 110.125V113.075C133.964 115.275 132.931 116.375 130.864 116.375H130.639ZM126.964 121.45C126.964 120.95 127.139 120.525 127.489 120.175C127.839 119.825 128.264 119.65 128.764 119.65C129.264 119.65 129.689 119.825 130.039 120.175C130.389 120.525 130.564 120.95 130.564 121.45C130.564 121.95 130.389 122.375 130.039 122.725C129.689 123.075 129.264 123.25 128.764 123.25C128.264 123.25 127.839 123.075 127.489 122.725C127.139 122.375 126.964 121.95 126.964 121.45Z" fill="white"/>
</g>
<g filter="url(#filter2_d_730_2700)">
<path d="M117.639 106.403C117.506 106.403 117.389 106.453 117.289 106.553C117.206 106.653 117.164 106.77 117.164 106.903V108.278H114.239V106.853C114.239 104.653 115.273 103.553 117.339 103.553H117.464C117.598 103.553 117.706 103.503 117.789 103.403C117.889 103.303 117.939 103.186 117.939 103.053V100.078C117.939 99.9447 117.889 99.8281 117.789 99.7281C117.706 99.6281 117.598 99.5781 117.464 99.5781H115.564C115.431 99.5781 115.314 99.6281 115.214 99.7281C115.131 99.8281 115.089 99.9447 115.089 100.078V101.353H111.989V100.153C111.989 97.9531 113.023 96.8531 115.089 96.8531H117.864C119.931 96.8531 120.964 97.9531 120.964 100.153V103.103C120.964 105.303 119.931 106.403 117.864 106.403H117.639ZM113.964 111.478C113.964 110.978 114.139 110.553 114.489 110.203C114.839 109.853 115.264 109.678 115.764 109.678C116.264 109.678 116.689 109.853 117.039 110.203C117.389 110.553 117.564 110.978 117.564 111.478C117.564 111.978 117.389 112.403 117.039 112.753C116.689 113.103 116.264 113.278 115.764 113.278C115.264 113.278 114.839 113.103 114.489 112.753C114.139 112.403 113.964 111.978 113.964 111.478Z" fill="white"/>
</g>
<g filter="url(#filter3_d_730_2700)">
<path d="M130.639 94.375C130.506 94.375 130.389 94.425 130.289 94.525C130.206 94.625 130.164 94.7417 130.164 94.875V96.25H127.239V94.825C127.239 92.625 128.273 91.525 130.339 91.525H130.464C130.598 91.525 130.706 91.475 130.789 91.375C130.889 91.275 130.939 91.1583 130.939 91.025V88.05C130.939 87.9167 130.889 87.8 130.789 87.7C130.706 87.6 130.598 87.55 130.464 87.55H128.564C128.431 87.55 128.314 87.6 128.214 87.7C128.131 87.8 128.089 87.9167 128.089 88.05V89.325H124.989V88.125C124.989 85.925 126.023 84.825 128.089 84.825H130.864C132.931 84.825 133.964 85.925 133.964 88.125V91.075C133.964 93.275 132.931 94.375 130.864 94.375H130.639ZM126.964 99.45C126.964 98.95 127.139 98.525 127.489 98.175C127.839 97.825 128.264 97.65 128.764 97.65C129.264 97.65 129.689 97.825 130.039 98.175C130.389 98.525 130.564 98.95 130.564 99.45C130.564 99.95 130.389 100.375 130.039 100.725C129.689 101.075 129.264 101.25 128.764 101.25C128.264 101.25 127.839 101.075 127.489 100.725C127.139 100.375 126.964 99.95 126.964 99.45Z" fill="white"/>
</g>
<path d="M13.2173 62C12.5215 62 12.1113 61.5752 12.1113 60.8428V52.4419C12.1113 51.7095 12.5215 51.2847 13.2173 51.2847C13.9131 51.2847 14.3232 51.7095 14.3232 52.4419V60.1689H18.0732C18.6738 60.1689 19.0767 60.5132 19.0767 61.0845C19.0767 61.6558 18.6812 62 18.0732 62H13.2173ZM21.1787 53.1743C20.5342 53.1743 20.0361 52.6836 20.0361 52.0684C20.0361 51.4458 20.5342 50.9624 21.1787 50.9624C21.8232 50.9624 22.3213 51.4458 22.3213 52.0684C22.3213 52.6836 21.8232 53.1743 21.1787 53.1743ZM21.1787 62.1538C20.5122 62.1538 20.1094 61.7363 20.1094 61.0405V55.1079C20.1094 54.4121 20.5122 53.9873 21.1787 53.9873C21.8379 53.9873 22.248 54.4121 22.248 55.1079V61.0405C22.248 61.7363 21.8379 62.1538 21.1787 62.1538ZM26.877 62.1685C25.0752 62.1685 23.874 61.5239 23.5005 60.6011C23.4492 60.4619 23.4199 60.3228 23.4199 60.2056C23.4199 59.7148 23.7861 59.3853 24.2842 59.3853C24.6284 59.3853 24.9214 59.5391 25.2144 59.8687C25.6318 60.418 26.1152 60.667 26.9282 60.667C27.7046 60.667 28.21 60.3447 28.21 59.8247C28.21 59.3999 27.939 59.1729 27.1699 59.0044L25.8516 58.7261C24.3135 58.3965 23.5371 57.6128 23.5371 56.4482C23.5371 54.9468 24.8335 53.98 26.8696 53.98C28.4956 53.98 29.6895 54.7197 29.9458 55.606C29.9751 55.7158 29.9971 55.8184 29.9971 55.9209C29.9971 56.353 29.7261 56.6533 29.1768 56.6533C28.8984 56.6533 28.5908 56.5508 28.4004 56.3237C28.0269 55.8477 27.6021 55.4814 26.833 55.4814C26.1079 55.4814 25.6025 55.8257 25.6025 56.3311C25.6025 56.7412 25.9102 57.0122 26.6938 57.1807L27.9902 57.459C29.6602 57.8105 30.3486 58.4258 30.3486 59.5977C30.3486 61.1577 28.9497 62.1685 26.877 62.1685ZM31.9819 59.9932V55.7598H31.5718C31.0664 55.7598 30.7441 55.4521 30.7441 54.9541C30.7441 54.4561 31.0664 54.1484 31.5718 54.1484H31.9819V53.2769C31.9819 52.5884 32.3848 52.1636 33.0513 52.1636C33.7178 52.1636 34.1206 52.5884 34.1206 53.2769V54.1484H34.875C35.3804 54.1484 35.6953 54.4634 35.6953 54.9541C35.6953 55.4448 35.3804 55.7598 34.875 55.7598H34.1206V59.5171C34.1206 60.0737 34.311 60.3081 34.7725 60.3447L34.9116 60.3594C35.439 60.418 35.7246 60.6377 35.7246 61.1357C35.7246 61.7656 35.1094 62.0879 34.2085 62.0879H34.1353C32.707 62.0879 31.9819 61.3774 31.9819 59.9932ZM40.2876 59.9932V55.7598H39.8774C39.3721 55.7598 39.0498 55.4521 39.0498 54.9541C39.0498 54.4561 39.3721 54.1484 39.8774 54.1484H40.2876V53.2769C40.2876 52.5884 40.6904 52.1636 41.3569 52.1636C42.0234 52.1636 42.4263 52.5884 42.4263 53.2769V54.1484H43.1807C43.686 54.1484 44.001 54.4634 44.001 54.9541C44.001 55.4448 43.686 55.7598 43.1807 55.7598H42.4263V59.5171C42.4263 60.0737 42.6167 60.3081 43.0781 60.3447L43.2173 60.3594C43.7446 60.418 44.0303 60.6377 44.0303 61.1357C44.0303 61.7656 43.415 62.0879 42.5142 62.0879H42.4409C41.0127 62.0879 40.2876 61.3774 40.2876 59.9932ZM46.1689 62.1538C45.5464 62.1538 45.0996 61.7729 45.0996 61.0405V52.3687C45.0996 51.6802 45.4951 51.27 46.1543 51.27C46.8135 51.27 47.2017 51.6802 47.2017 52.3687V55.5474H47.2456C47.6631 54.5586 48.52 54.002 49.7139 54.002C51.457 54.002 52.4531 55.1299 52.4531 56.9463V61.0405C52.4531 61.7729 52.0137 62.1538 51.3838 62.1538C50.7612 62.1538 50.3145 61.7729 50.3145 61.0405V57.4004C50.3145 56.3896 49.8164 55.7744 48.8423 55.7744C47.8315 55.7744 47.2383 56.4849 47.2383 57.5176V61.0405C47.2383 61.7729 46.7988 62.1538 46.1689 62.1538ZM57.4336 62.1685C54.98 62.1685 53.5371 60.6523 53.5371 58.1108C53.5371 55.584 55.0093 53.98 57.3311 53.98C59.5576 53.98 61.0518 55.5034 61.0518 57.6348C61.0518 58.228 60.7148 58.5649 60.1216 58.5649H55.6392V58.6602C55.6392 59.8247 56.3423 60.5864 57.4263 60.5864C58.21 60.5864 58.7227 60.3228 59.3013 59.6416C59.5283 59.4072 59.7188 59.3267 59.9971 59.3267C60.4585 59.3267 60.832 59.6196 60.832 60.1104C60.832 60.2788 60.7808 60.4546 60.6855 60.6304C60.1655 61.5972 58.9497 62.1685 57.4336 62.1685ZM55.6611 57.2539H58.9937C58.9497 56.2285 58.2905 55.562 57.353 55.562C56.4155 55.562 55.7344 56.2505 55.6611 57.2539ZM66.2007 64.7979C65.5781 64.7979 65.1313 64.417 65.1313 63.6846V55.0859C65.1313 54.3682 65.5708 53.9873 66.186 53.9873C66.8013 53.9873 67.2407 54.3682 67.2407 55.0933V55.5181H67.2847C67.7095 54.5952 68.5811 54.0239 69.7163 54.0239C71.7085 54.0239 72.9316 55.54 72.9316 58.0742C72.9316 60.6011 71.7158 62.1245 69.7529 62.1245C68.6104 62.1245 67.7314 61.5679 67.314 60.6816H67.27V63.6846C67.27 64.417 66.8306 64.7979 66.2007 64.7979ZM68.9985 60.4033C70.0679 60.4033 70.7417 59.5024 70.7417 58.0742C70.7417 56.6533 70.0679 55.7378 68.9985 55.7378C67.9512 55.7378 67.2627 56.668 67.2627 58.0742C67.2627 59.4951 67.9512 60.4033 68.9985 60.4033ZM75.1069 62.1538C74.4624 62.1538 74.0376 61.751 74.0376 61.0405V55.064C74.0376 54.3828 74.4551 53.9873 75.0703 53.9873C75.6709 53.9873 76.0811 54.3828 76.0811 55.064V55.5767H76.125C76.3301 54.6025 76.9746 54.0239 77.7583 54.0239C78.0439 54.0239 78.271 54.0898 78.4248 54.2217C78.6299 54.3828 78.7324 54.6465 78.7324 55.0127C78.7324 55.3496 78.6299 55.606 78.4248 55.7817C78.2197 55.9575 77.9121 56.0527 77.4946 56.0601C76.5205 56.0747 76.1763 56.624 76.1763 57.5542V61.0405C76.1763 61.751 75.7588 62.1538 75.1069 62.1538ZM82.8413 62.1685C80.4683 62.1685 78.9521 60.645 78.9521 58.0669C78.9521 55.5254 80.4902 53.98 82.8413 53.98C85.1924 53.98 86.7305 55.5181 86.7305 58.0669C86.7305 60.6523 85.2144 62.1685 82.8413 62.1685ZM82.8413 60.5352C83.8887 60.5352 84.5552 59.6489 84.5552 58.0742C84.5552 56.5142 83.8813 55.6133 82.8413 55.6133C81.8013 55.6133 81.1201 56.5142 81.1201 58.0742C81.1201 59.6489 81.7866 60.5352 82.8413 60.5352ZM91.0371 62.1685C89.2354 62.1685 88.0342 61.5239 87.6606 60.6011C87.6094 60.4619 87.5801 60.3228 87.5801 60.2056C87.5801 59.7148 87.9463 59.3853 88.4443 59.3853C88.7886 59.3853 89.0815 59.5391 89.3745 59.8687C89.792 60.418 90.2754 60.667 91.0884 60.667C91.8647 60.667 92.3701 60.3447 92.3701 59.8247C92.3701 59.3999 92.0991 59.1729 91.3301 59.0044L90.0117 58.7261C88.4736 58.3965 87.6973 57.6128 87.6973 56.4482C87.6973 54.9468 88.9937 53.98 91.0298 53.98C92.6558 53.98 93.8496 54.7197 94.106 55.606C94.1353 55.7158 94.1572 55.8184 94.1572 55.9209C94.1572 56.353 93.8862 56.6533 93.3369 56.6533C93.0586 56.6533 92.751 56.5508 92.5605 56.3237C92.187 55.8477 91.7622 55.4814 90.9932 55.4814C90.2681 55.4814 89.7627 55.8257 89.7627 56.3311C89.7627 56.7412 90.0703 57.0122 90.854 57.1807L92.1504 57.459C93.8203 57.8105 94.5088 58.4258 94.5088 59.5977C94.5088 61.1577 93.1099 62.1685 91.0371 62.1685ZM100.866 62.1245C99.3721 62.1245 98.2368 61.1577 98.2368 59.7441C98.2368 58.3159 99.3354 57.4883 101.298 57.3711L103.276 57.2539V56.7339C103.276 56.0015 102.763 55.5767 101.958 55.5767C101.306 55.5767 100.91 55.7891 100.434 56.4043C100.2 56.668 99.9287 56.7998 99.5845 56.7998C99.0645 56.7998 98.6909 56.4629 98.6909 55.9795C98.6909 55.811 98.7275 55.6572 98.8008 55.4961C99.167 54.5586 100.427 53.98 102.053 53.98C104.067 53.98 105.378 55.02 105.378 56.6021V61.0771C105.378 61.7876 104.946 62.1538 104.338 62.1538C103.759 62.1538 103.356 61.8315 103.312 61.2017V60.7988H103.269C102.829 61.6338 101.848 62.1245 100.866 62.1245ZM101.569 60.5791C102.507 60.5791 103.276 59.9712 103.276 59.1216V58.5503L101.621 58.6528C100.822 58.7114 100.368 59.0703 100.368 59.627C100.368 60.2129 100.852 60.5791 101.569 60.5791ZM107.832 62.1538C107.209 62.1538 106.762 61.7729 106.762 61.0405V55.064C106.762 54.3975 107.15 53.9873 107.795 53.9873C108.439 53.9873 108.864 54.3975 108.864 55.0713V55.5107H108.908C109.326 54.5366 110.117 54.002 111.325 54.002C113.068 54.002 114.05 55.1006 114.05 56.939V61.0405C114.05 61.7729 113.603 62.1538 112.98 62.1538C112.351 62.1538 111.911 61.7729 111.911 61.0405V57.3857C111.911 56.3604 111.428 55.7744 110.468 55.7744C109.509 55.7744 108.901 56.4775 108.901 57.4956V61.0405C108.901 61.7729 108.461 62.1538 107.832 62.1538ZM118.32 62.1245C116.357 62.1245 115.119 60.5718 115.119 58.0596C115.119 55.5693 116.364 54.0239 118.334 54.0239C119.47 54.0239 120.349 54.6245 120.729 55.4961H120.773V52.3906C120.773 51.6582 121.22 51.27 121.843 51.27C122.473 51.27 122.912 51.6582 122.912 52.3906V61.0698C122.912 61.7803 122.473 62.1538 121.85 62.1538C121.235 62.1538 120.773 61.7876 120.773 61.0698V60.6157H120.737C120.393 61.4946 119.528 62.1245 118.32 62.1245ZM119.045 60.4033C120.107 60.4033 120.788 59.5098 120.788 58.0742C120.788 56.646 120.107 55.7378 119.045 55.7378C117.968 55.7378 117.309 56.6387 117.309 58.0742C117.309 59.5171 117.968 60.4033 119.045 60.4033ZM130.896 62.1685C128.53 62.1685 127.028 60.6157 127.028 58.0742C127.028 55.562 128.522 53.98 130.881 53.98C132.456 53.98 133.767 54.7417 134.191 55.855C134.265 56.0381 134.309 56.2285 134.309 56.3823C134.309 56.9097 133.898 57.2173 133.393 57.2173C132.968 57.2173 132.712 57.0488 132.492 56.6606C132.104 55.9722 131.628 55.6572 130.947 55.6572C129.863 55.6572 129.196 56.5508 129.196 58.0669C129.196 59.6123 129.863 60.4912 130.932 60.4912C131.679 60.4912 132.141 60.125 132.47 59.5684C132.756 59.1216 132.99 58.9385 133.444 58.9385C133.942 58.9385 134.345 59.2681 134.345 59.7954C134.345 59.9639 134.301 60.1396 134.206 60.3521C133.737 61.4214 132.397 62.1685 130.896 62.1685ZM139.091 62.1685C136.718 62.1685 135.202 60.645 135.202 58.0669C135.202 55.5254 136.74 53.98 139.091 53.98C141.442 53.98 142.98 55.5181 142.98 58.0669C142.98 60.6523 141.464 62.1685 139.091 62.1685ZM139.091 60.5352C140.139 60.5352 140.805 59.6489 140.805 58.0742C140.805 56.5142 140.131 55.6133 139.091 55.6133C138.051 55.6133 137.37 56.5142 137.37 58.0742C137.37 59.6489 138.037 60.5352 139.091 60.5352ZM145.156 62.1538C144.533 62.1538 144.086 61.7729 144.086 61.0405V55.064C144.086 54.3975 144.475 53.9873 145.119 53.9873C145.764 53.9873 146.188 54.3975 146.188 55.0713V55.5107H146.232C146.65 54.5366 147.441 54.002 148.649 54.002C150.393 54.002 151.374 55.1006 151.374 56.939V61.0405C151.374 61.7729 150.927 62.1538 150.305 62.1538C149.675 62.1538 149.235 61.7729 149.235 61.0405V57.3857C149.235 56.3604 148.752 55.7744 147.792 55.7744C146.833 55.7744 146.225 56.4775 146.225 57.4956V61.0405C146.225 61.7729 145.786 62.1538 145.156 62.1538ZM155.93 62.1685C154.128 62.1685 152.927 61.5239 152.553 60.6011C152.502 60.4619 152.473 60.3228 152.473 60.2056C152.473 59.7148 152.839 59.3853 153.337 59.3853C153.681 59.3853 153.974 59.5391 154.267 59.8687C154.685 60.418 155.168 60.667 155.981 60.667C156.757 60.667 157.263 60.3447 157.263 59.8247C157.263 59.3999 156.992 59.1729 156.223 59.0044L154.904 58.7261C153.366 58.3965 152.59 57.6128 152.59 56.4482C152.59 54.9468 153.886 53.98 155.922 53.98C157.548 53.98 158.742 54.7197 158.999 55.606C159.028 55.7158 159.05 55.8184 159.05 55.9209C159.05 56.353 158.779 56.6533 158.229 56.6533C157.951 56.6533 157.644 56.5508 157.453 56.3237C157.08 55.8477 156.655 55.4814 155.886 55.4814C155.161 55.4814 154.655 55.8257 154.655 56.3311C154.655 56.7412 154.963 57.0122 155.747 57.1807L157.043 57.459C158.713 57.8105 159.401 58.4258 159.401 59.5977C159.401 61.1577 158.002 62.1685 155.93 62.1685Z" fill="white"/>
<path d="M34.1207 42V35.52H35.0612V38.3145H38.3012V35.52H39.2462V42H38.3012V39.201H35.0612V42H34.1207ZM42.6659 42.135C42.1829 42.135 41.7584 42.03 41.3924 41.82C41.0294 41.607 40.7459 41.3115 40.5419 40.9335C40.3409 40.5525 40.2404 40.1115 40.2404 39.6105C40.2404 39.0795 40.3394 38.619 40.5374 38.229C40.7384 37.839 41.0174 37.5375 41.3744 37.3245C41.7314 37.1115 42.1469 37.005 42.6209 37.005C43.1159 37.005 43.5374 37.1205 43.8854 37.3515C44.2334 37.5795 44.4929 37.905 44.6639 38.328C44.8379 38.751 44.9069 39.2535 44.8709 39.8355H43.9304V39.4935C43.9244 38.9295 43.8164 38.5125 43.6064 38.2425C43.3994 37.9725 43.0829 37.8375 42.6569 37.8375C42.1859 37.8375 41.8319 37.986 41.5949 38.283C41.3579 38.58 41.2394 39.009 41.2394 39.57C41.2394 40.104 41.3579 40.518 41.5949 40.812C41.8319 41.103 42.1739 41.2485 42.6209 41.2485C42.9149 41.2485 43.1684 41.1825 43.3814 41.0505C43.5974 40.9155 43.7654 40.7235 43.8854 40.4745L44.8079 40.767C44.6189 41.202 44.3324 41.5395 43.9484 41.7795C43.5644 42.0165 43.1369 42.135 42.6659 42.135ZM40.9334 39.8355V39.102H44.4029V39.8355H40.9334ZM46.4496 44.16L47.3901 41.5995L47.4036 42.3555L45.2841 37.14H46.2651L47.8491 41.1675H47.5611L49.0731 37.14H50.0271L47.3451 44.16H46.4496ZM49.9213 43.0755L49.9798 42.657C50.1088 42.666 50.2093 42.642 50.2813 42.585C50.3533 42.528 50.4013 42.4485 50.4253 42.3465C50.4493 42.2445 50.4538 42.129 50.4388 42H49.9213V40.9155H50.9158V42.09C50.9158 42.444 50.8303 42.711 50.6593 42.891C50.4913 43.071 50.2453 43.1325 49.9213 43.0755ZM55.796 42.135C55.436 42.135 55.1345 42.069 54.8915 41.937C54.6485 41.802 54.464 41.625 54.338 41.406C54.215 41.184 54.1535 40.941 54.1535 40.677C54.1535 40.431 54.197 40.215 54.284 40.029C54.371 39.843 54.5 39.6855 54.671 39.5565C54.842 39.4245 55.052 39.318 55.301 39.237C55.517 39.174 55.7615 39.1185 56.0345 39.0705C56.3075 39.0225 56.594 38.9775 56.894 38.9355C57.197 38.8935 57.497 38.8515 57.794 38.8095L57.452 38.9985C57.458 38.6175 57.377 38.3355 57.209 38.1525C57.044 37.9665 56.759 37.8735 56.354 37.8735C56.099 37.8735 55.865 37.9335 55.652 38.0535C55.439 38.1705 55.2905 38.3655 55.2065 38.6385L54.329 38.3685C54.449 37.9515 54.677 37.62 55.013 37.374C55.352 37.128 55.802 37.005 56.363 37.005C56.798 37.005 57.176 37.08 57.497 37.23C57.821 37.377 58.058 37.611 58.208 37.932C58.286 38.091 58.334 38.259 58.352 38.436C58.37 38.613 58.379 38.8035 58.379 39.0075V42H57.5465V40.8885L57.7085 41.0325C57.5075 41.4045 57.251 41.682 56.939 41.865C56.63 42.045 56.249 42.135 55.796 42.135ZM55.9625 41.3655C56.2295 41.3655 56.459 41.319 56.651 41.226C56.843 41.13 56.9975 41.0085 57.1145 40.8615C57.2315 40.7145 57.308 40.5615 57.344 40.4025C57.395 40.2585 57.4235 40.0965 57.4295 39.9165C57.4385 39.7365 57.443 39.5925 57.443 39.4845L57.749 39.597C57.452 39.642 57.182 39.6825 56.939 39.7185C56.696 39.7545 56.4755 39.7905 56.2775 39.8265C56.0825 39.8595 55.9085 39.9 55.7555 39.948C55.6265 39.993 55.511 40.047 55.409 40.11C55.31 40.173 55.2305 40.2495 55.1705 40.3395C55.1135 40.4295 55.085 40.539 55.085 40.668C55.085 40.794 55.1165 40.911 55.1795 41.019C55.2425 41.124 55.3385 41.208 55.4675 41.271C55.5965 41.334 55.7615 41.3655 55.9625 41.3655ZM59.5475 42V37.14H60.3845V38.319L60.2675 38.166C60.3275 38.01 60.4055 37.8675 60.5015 37.7385C60.5975 37.6065 60.7085 37.4985 60.8345 37.4145C60.9575 37.3245 61.094 37.2555 61.244 37.2075C61.397 37.1565 61.553 37.1265 61.712 37.1175C61.871 37.1055 62.024 37.113 62.171 37.14V38.022C62.012 37.98 61.835 37.968 61.64 37.986C61.448 38.004 61.271 38.0655 61.109 38.1705C60.956 38.2695 60.8345 38.3895 60.7445 38.5305C60.6575 38.6715 60.5945 38.829 60.5555 39.003C60.5165 39.174 60.497 39.3555 60.497 39.5475V42H59.5475ZM65.0956 42.135C64.6126 42.135 64.1881 42.03 63.8221 41.82C63.4591 41.607 63.1756 41.3115 62.9716 40.9335C62.7706 40.5525 62.6701 40.1115 62.6701 39.6105C62.6701 39.0795 62.7691 38.619 62.9671 38.229C63.1681 37.839 63.4471 37.5375 63.8041 37.3245C64.1611 37.1115 64.5766 37.005 65.0506 37.005C65.5456 37.005 65.9671 37.1205 66.3151 37.3515C66.6631 37.5795 66.9226 37.905 67.0936 38.328C67.2676 38.751 67.3366 39.2535 67.3006 39.8355H66.3601V39.4935C66.3541 38.9295 66.2461 38.5125 66.0361 38.2425C65.8291 37.9725 65.5126 37.8375 65.0866 37.8375C64.6156 37.8375 64.2616 37.986 64.0246 38.283C63.7876 38.58 63.6691 39.009 63.6691 39.57C63.6691 40.104 63.7876 40.518 64.0246 40.812C64.2616 41.103 64.6036 41.2485 65.0506 41.2485C65.3446 41.2485 65.5981 41.1825 65.8111 41.0505C66.0271 40.9155 66.1951 40.7235 66.3151 40.4745L67.2376 40.767C67.0486 41.202 66.7621 41.5395 66.3781 41.7795C65.9941 42.0165 65.5666 42.135 65.0956 42.135ZM63.3631 39.8355V39.102H66.8326V39.8355H63.3631ZM70.7689 44.16L71.7094 41.5995L71.7229 42.3555L69.6034 37.14H70.5844L72.1684 41.1675H71.8804L73.3924 37.14H74.3464L71.6644 44.16H70.7689ZM76.9861 42.135C76.5001 42.135 76.0786 42.0255 75.7216 41.8065C75.3646 41.5875 75.0886 41.286 74.8936 40.902C74.7016 40.515 74.6056 40.0695 74.6056 39.5655C74.6056 39.0585 74.7046 38.613 74.9026 38.229C75.1006 37.842 75.3781 37.542 75.7351 37.329C76.0921 37.113 76.5091 37.005 76.9861 37.005C77.4721 37.005 77.8936 37.1145 78.2506 37.3335C78.6076 37.5525 78.8836 37.854 79.0786 38.238C79.2736 38.622 79.3711 39.0645 79.3711 39.5655C79.3711 40.0725 79.2721 40.5195 79.0741 40.9065C78.8791 41.2905 78.6031 41.592 78.2461 41.811C77.8891 42.027 77.4691 42.135 76.9861 42.135ZM76.9861 41.2485C77.4511 41.2485 77.7976 41.0925 78.0256 40.7805C78.2566 40.4655 78.3721 40.0605 78.3721 39.5655C78.3721 39.0585 78.2551 38.6535 78.0211 38.3505C77.7901 38.0445 77.4451 37.8915 76.9861 37.8915C76.6711 37.8915 76.4116 37.9635 76.2076 38.1075C76.0036 38.2485 75.8521 38.445 75.7531 38.697C75.6541 38.946 75.6046 39.2355 75.6046 39.5655C75.6046 40.0755 75.7216 40.4835 75.9556 40.7895C76.1896 41.0955 76.5331 41.2485 76.9861 41.2485ZM82.1915 42.1305C81.8555 42.1305 81.5735 42.0765 81.3455 41.9685C81.1175 41.8605 80.9315 41.7195 80.7875 41.5455C80.6465 41.3685 80.5385 41.1765 80.4635 40.9695C80.3885 40.7625 80.3375 40.56 80.3105 40.362C80.2835 40.164 80.27 39.99 80.27 39.84V37.14H81.224V39.5295C81.224 39.7185 81.239 39.9135 81.269 40.1145C81.302 40.3125 81.362 40.497 81.449 40.668C81.539 40.839 81.6635 40.977 81.8225 41.082C81.9845 41.187 82.1945 41.2395 82.4525 41.2395C82.6205 41.2395 82.7795 41.2125 82.9295 41.1585C83.0795 41.1015 83.21 41.0115 83.321 40.8885C83.435 40.7655 83.5235 40.6035 83.5865 40.4025C83.6525 40.2015 83.6855 39.957 83.6855 39.669L84.2705 39.8895C84.2705 40.3305 84.188 40.7205 84.023 41.0595C83.858 41.3955 83.621 41.658 83.312 41.847C83.003 42.036 82.6295 42.1305 82.1915 42.1305ZM83.798 42V40.596H83.6855V37.14H84.635V42H83.798ZM89.5303 42.1305C89.1943 42.1305 88.9123 42.0765 88.6843 41.9685C88.4563 41.8605 88.2703 41.7195 88.1263 41.5455C87.9853 41.3685 87.8773 41.1765 87.8023 40.9695C87.7273 40.7625 87.6763 40.56 87.6493 40.362C87.6223 40.164 87.6088 39.99 87.6088 39.84V37.14H88.5628V39.5295C88.5628 39.7185 88.5778 39.9135 88.6078 40.1145C88.6408 40.3125 88.7008 40.497 88.7878 40.668C88.8778 40.839 89.0023 40.977 89.1613 41.082C89.3233 41.187 89.5333 41.2395 89.7913 41.2395C89.9593 41.2395 90.1183 41.2125 90.2683 41.1585C90.4183 41.1015 90.5488 41.0115 90.6598 40.8885C90.7738 40.7655 90.8623 40.6035 90.9253 40.4025C90.9913 40.2015 91.0243 39.957 91.0243 39.669L91.6093 39.8895C91.6093 40.3305 91.5268 40.7205 91.3618 41.0595C91.1968 41.3955 90.9598 41.658 90.6508 41.847C90.3418 42.036 89.9683 42.1305 89.5303 42.1305ZM91.1368 42V40.596H91.0243V37.14H91.9738V42H91.1368ZM96.647 42V39.6105C96.647 39.4215 96.6305 39.228 96.5975 39.03C96.5675 38.829 96.5075 38.643 96.4175 38.472C96.3305 38.301 96.206 38.163 96.044 38.058C95.885 37.953 95.6765 37.9005 95.4185 37.9005C95.2505 37.9005 95.0915 37.929 94.9415 37.986C94.7915 38.04 94.6595 38.1285 94.5455 38.2515C94.4345 38.3745 94.346 38.5365 94.28 38.7375C94.217 38.9385 94.1855 39.183 94.1855 39.471L93.6005 39.2505C93.6005 38.8095 93.683 38.421 93.848 38.085C94.013 37.746 94.25 37.482 94.559 37.293C94.868 37.104 95.2415 37.0095 95.6795 37.0095C96.0155 37.0095 96.2975 37.0635 96.5255 37.1715C96.7535 37.2795 96.938 37.422 97.079 37.599C97.223 37.773 97.3325 37.9635 97.4075 38.1705C97.4825 38.3775 97.5335 38.58 97.5605 38.778C97.5875 38.976 97.601 39.15 97.601 39.3V42H96.647ZM93.2315 42V37.14H94.073V38.544H94.1855V42H93.2315ZM100.642 42.135C100.189 42.135 99.7975 42.0225 99.4675 41.7975C99.1405 41.5725 98.887 41.2665 98.707 40.8795C98.53 40.4895 98.4415 40.0515 98.4415 39.5655C98.4415 39.0765 98.5315 38.64 98.7115 38.256C98.8915 37.869 99.1465 37.5645 99.4765 37.3425C99.8095 37.1175 100.204 37.005 100.66 37.005C101.119 37.005 101.505 37.1175 101.817 37.3425C102.132 37.5645 102.369 37.869 102.528 38.256C102.69 38.643 102.771 39.0795 102.771 39.5655C102.771 40.0515 102.69 40.488 102.528 40.875C102.366 41.262 102.127 41.5695 101.812 41.7975C101.497 42.0225 101.107 42.135 100.642 42.135ZM100.773 41.2845C101.082 41.2845 101.334 41.211 101.529 41.064C101.724 40.917 101.866 40.7145 101.956 40.4565C102.046 40.1985 102.091 39.9015 102.091 39.5655C102.091 39.2295 102.045 38.9325 101.952 38.6745C101.862 38.4165 101.721 38.2155 101.529 38.0715C101.34 37.9275 101.098 37.8555 100.804 37.8555C100.492 37.8555 100.236 37.932 100.035 38.085C99.8335 38.238 99.6835 38.4435 99.5845 38.7015C99.4885 38.9595 99.4405 39.2475 99.4405 39.5655C99.4405 39.8865 99.4885 40.1775 99.5845 40.4385C99.6835 40.6965 99.8305 40.902 100.026 41.055C100.224 41.208 100.473 41.2845 100.773 41.2845ZM102.091 42V38.5035H101.983V35.52H102.928V42H102.091ZM106.343 42.135C105.86 42.135 105.435 42.03 105.069 41.82C104.706 41.607 104.423 41.3115 104.219 40.9335C104.018 40.5525 103.917 40.1115 103.917 39.6105C103.917 39.0795 104.016 38.619 104.214 38.229C104.415 37.839 104.694 37.5375 105.051 37.3245C105.408 37.1115 105.824 37.005 106.298 37.005C106.793 37.005 107.214 37.1205 107.562 37.3515C107.91 37.5795 108.17 37.905 108.341 38.328C108.515 38.751 108.584 39.2535 108.548 39.8355H107.607V39.4935C107.601 38.9295 107.493 38.5125 107.283 38.2425C107.076 37.9725 106.76 37.8375 106.334 37.8375C105.863 37.8375 105.509 37.986 105.272 38.283C105.035 38.58 104.916 39.009 104.916 39.57C104.916 40.104 105.035 40.518 105.272 40.812C105.509 41.103 105.851 41.2485 106.298 41.2485C106.592 41.2485 106.845 41.1825 107.058 41.0505C107.274 40.9155 107.442 40.7235 107.562 40.4745L108.485 40.767C108.296 41.202 108.009 41.5395 107.625 41.7795C107.241 42.0165 106.814 42.135 106.343 42.135ZM104.61 39.8355V39.102H108.08V39.8355H104.61ZM111.636 42.135C111.138 42.135 110.715 42.024 110.367 41.802C110.019 41.58 109.752 41.2755 109.566 40.8885C109.383 40.5015 109.29 40.062 109.287 39.57C109.29 39.069 109.386 38.6265 109.575 38.2425C109.764 37.8555 110.034 37.5525 110.385 37.3335C110.736 37.1145 111.158 37.005 111.65 37.005C112.181 37.005 112.634 37.137 113.009 37.401C113.387 37.665 113.636 38.0265 113.756 38.4855L112.82 38.7555C112.727 38.4825 112.574 38.271 112.361 38.121C112.151 37.968 111.909 37.8915 111.636 37.8915C111.327 37.8915 111.074 37.965 110.876 38.112C110.678 38.256 110.531 38.454 110.435 38.706C110.339 38.958 110.289 39.246 110.286 39.57C110.289 40.071 110.403 40.476 110.628 40.785C110.856 41.094 111.192 41.2485 111.636 41.2485C111.939 41.2485 112.184 41.1795 112.37 41.0415C112.559 40.9005 112.703 40.6995 112.802 40.4385L113.756 40.6635C113.597 41.1375 113.334 41.502 112.968 41.757C112.602 42.009 112.158 42.135 111.636 42.135ZM114.631 36.3435V35.43H115.571V36.3435H114.631ZM114.631 42V37.14H115.571V42H114.631ZM118.853 42.135C118.4 42.135 118.008 42.0225 117.678 41.7975C117.351 41.5725 117.098 41.2665 116.918 40.8795C116.741 40.4895 116.652 40.0515 116.652 39.5655C116.652 39.0765 116.742 38.64 116.922 38.256C117.102 37.869 117.357 37.5645 117.687 37.3425C118.02 37.1175 118.415 37.005 118.871 37.005C119.33 37.005 119.715 37.1175 120.027 37.3425C120.342 37.5645 120.579 37.869 120.738 38.256C120.9 38.643 120.981 39.0795 120.981 39.5655C120.981 40.0515 120.9 40.488 120.738 40.875C120.576 41.262 120.338 41.5695 120.023 41.7975C119.708 42.0225 119.318 42.135 118.853 42.135ZM118.983 41.2845C119.292 41.2845 119.544 41.211 119.739 41.064C119.934 40.917 120.077 40.7145 120.167 40.4565C120.257 40.1985 120.302 39.9015 120.302 39.5655C120.302 39.2295 120.255 38.9325 120.162 38.6745C120.072 38.4165 119.931 38.2155 119.739 38.0715C119.55 37.9275 119.309 37.8555 119.015 37.8555C118.703 37.8555 118.446 37.932 118.245 38.085C118.044 38.238 117.894 38.4435 117.795 38.7015C117.699 38.9595 117.651 39.2475 117.651 39.5655C117.651 39.8865 117.699 40.1775 117.795 40.4385C117.894 40.6965 118.041 40.902 118.236 41.055C118.434 41.208 118.683 41.2845 118.983 41.2845ZM120.302 42V38.5035H120.194V35.52H121.139V42H120.302ZM124.554 42.135C124.071 42.135 123.646 42.03 123.28 41.82C122.917 41.607 122.634 41.3115 122.43 40.9335C122.229 40.5525 122.128 40.1115 122.128 39.6105C122.128 39.0795 122.227 38.619 122.425 38.229C122.626 37.839 122.905 37.5375 123.262 37.3245C123.619 37.1115 124.035 37.005 124.509 37.005C125.004 37.005 125.425 37.1205 125.773 37.3515C126.121 37.5795 126.381 37.905 126.552 38.328C126.726 38.751 126.795 39.2535 126.759 39.8355H125.818V39.4935C125.812 38.9295 125.704 38.5125 125.494 38.2425C125.287 37.9725 124.971 37.8375 124.545 37.8375C124.074 37.8375 123.72 37.986 123.483 38.283C123.246 38.58 123.127 39.009 123.127 39.57C123.127 40.104 123.246 40.518 123.483 40.812C123.72 41.103 124.062 41.2485 124.509 41.2485C124.803 41.2485 125.056 41.1825 125.269 41.0505C125.485 40.9155 125.653 40.7235 125.773 40.4745L126.696 40.767C126.507 41.202 126.22 41.5395 125.836 41.7795C125.452 42.0165 125.025 42.135 124.554 42.135ZM122.821 39.8355V39.102H126.291V39.8355H122.821ZM129.699 42.135C129.246 42.135 128.854 42.0225 128.524 41.7975C128.197 41.5725 127.944 41.2665 127.764 40.8795C127.587 40.4895 127.498 40.0515 127.498 39.5655C127.498 39.0765 127.588 38.64 127.768 38.256C127.948 37.869 128.203 37.5645 128.533 37.3425C128.866 37.1175 129.261 37.005 129.717 37.005C130.176 37.005 130.561 37.1175 130.873 37.3425C131.188 37.5645 131.425 37.869 131.584 38.256C131.746 38.643 131.827 39.0795 131.827 39.5655C131.827 40.0515 131.746 40.488 131.584 40.875C131.422 41.262 131.184 41.5695 130.869 41.7975C130.554 42.0225 130.164 42.135 129.699 42.135ZM129.829 41.2845C130.138 41.2845 130.39 41.211 130.585 41.064C130.78 40.917 130.923 40.7145 131.013 40.4565C131.103 40.1985 131.148 39.9015 131.148 39.5655C131.148 39.2295 131.101 38.9325 131.008 38.6745C130.918 38.4165 130.777 38.2155 130.585 38.0715C130.396 37.9275 130.155 37.8555 129.861 37.8555C129.549 37.8555 129.292 37.932 129.091 38.085C128.89 38.238 128.74 38.4435 128.641 38.7015C128.545 38.9595 128.497 39.2475 128.497 39.5655C128.497 39.8865 128.545 40.1775 128.641 40.4385C128.74 40.6965 128.887 40.902 129.082 41.055C129.28 41.208 129.529 41.2845 129.829 41.2845ZM131.148 42V38.5035H131.04V35.52H131.985V42H131.148ZM134.45 40.2405C134.45 40.0245 134.466 39.822 134.499 39.633C134.535 39.444 134.601 39.264 134.697 39.093C134.778 38.931 134.873 38.8005 134.981 38.7015C135.092 38.5995 135.212 38.5005 135.341 38.4045C135.473 38.3055 135.611 38.1795 135.755 38.0265C135.875 37.8945 135.954 37.761 135.993 37.626C136.035 37.491 136.056 37.3455 136.056 37.1895C136.056 37.0755 136.043 36.969 136.016 36.87C135.989 36.771 135.944 36.6855 135.881 36.6135C135.785 36.4935 135.663 36.4095 135.516 36.3615C135.369 36.3105 135.216 36.285 135.057 36.285C134.913 36.285 134.775 36.3045 134.643 36.3435C134.514 36.3825 134.406 36.4425 134.319 36.5235C134.226 36.6015 134.157 36.699 134.112 36.816C134.07 36.93 134.051 37.0545 134.054 37.1895H133.064C133.088 36.9075 133.16 36.6435 133.28 36.3975C133.4 36.1515 133.562 35.952 133.766 35.799C133.94 35.661 134.138 35.559 134.36 35.493C134.582 35.424 134.804 35.3895 135.026 35.3895C135.344 35.3895 135.644 35.439 135.926 35.538C136.211 35.637 136.448 35.7975 136.637 36.0195C136.775 36.1755 136.878 36.354 136.947 36.555C137.019 36.753 137.055 36.9585 137.055 37.1715C137.055 37.4565 136.994 37.7205 136.871 37.9635C136.751 38.2065 136.596 38.4285 136.407 38.6295C136.308 38.7345 136.208 38.8305 136.106 38.9175C136.004 39.0015 135.909 39.084 135.822 39.165C135.735 39.246 135.663 39.3345 135.606 39.4305C135.525 39.5685 135.479 39.693 135.467 39.804C135.455 39.912 135.449 40.0575 135.449 40.2405H134.45ZM134.454 42V40.911H135.449V42H134.454Z" fill="white"/>
</g>
<defs>
<filter id="filter0_i_730_2700" x="25" y="95" width="119" height="150.054" filterUnits="userSpaceOnUse" color-interpolation-filters="sRGB">
<feFlood flood-opacity="0" result="BackgroundImageFix"/>
<feBlend mode="normal" in="SourceGraphic" in2="BackgroundImageFix" result="shape"/>
<feColorMatrix in="SourceAlpha" type="matrix" values="0 0 0 0 0 0 0 0 0 0 0 0 0 0 0 0 0 0 127 0" result="hardAlpha"/>
<feOffset dy="4"/>
<feGaussianBlur stdDeviation="2"/>
<feComposite in2="hardAlpha" operator="arithmetic" k2="-1" k3="1"/>
<feColorMatrix type="matrix" values="0 0 0 0 0 0 0 0 0 0 0 0 0 0 0 0 0 0 0.25 0"/>
<feBlend mode="normal" in2="shape" result="effect1_innerShadow_730_2700"/>
</filter>
<filter id="filter1_d_730_2700" x="124.989" y="106.825" width="10.9751" height="18.425" filterUnits="userSpaceOnUse" color-interpolation-filters="sRGB">
<feFlood flood-opacity="0" result="BackgroundImageFix"/>
<feColorMatrix in="SourceAlpha" type="matrix" values="0 0 0 0 0 0 0 0 0 0 0 0 0 0 0 0 0 0 127 0" result="hardAlpha"/>
<feOffset dx="1" dy="1"/>
<feGaussianBlur stdDeviation="0.5"/>
<feComposite in2="hardAlpha" operator="out"/>
<feColorMatrix type="matrix" values="0 0 0 0 1 0 0 0 0 1 0 0 0 0 1 0 0 0 0.25 0"/>
<feBlend mode="normal" in2="BackgroundImageFix" result="effect1_dropShadow_730_2700"/>
<feBlend mode="normal" in="SourceGraphic" in2="effect1_dropShadow_730_2700" result="shape"/>
</filter>
<filter id="filter2_d_730_2700" x="111.989" y="96.853" width="10.9751" height="18.425" filterUnits="userSpaceOnUse" color-interpolation-filters="sRGB">
<feFlood flood-opacity="0" result="BackgroundImageFix"/>
<feColorMatrix in="SourceAlpha" type="matrix" values="0 0 0 0 0 0 0 0 0 0 0 0 0 0 0 0 0 0 127 0" result="hardAlpha"/>
<feOffset dx="1" dy="1"/>
<feGaussianBlur stdDeviation="0.5"/>
<feComposite in2="hardAlpha" operator="out"/>
<feColorMatrix type="matrix" values="0 0 0 0 1 0 0 0 0 1 0 0 0 0 1 0 0 0 0.25 0"/>
<feBlend mode="normal" in2="BackgroundImageFix" result="effect1_dropShadow_730_2700"/>
<feBlend mode="normal" in="SourceGraphic" in2="effect1_dropShadow_730_2700" result="shape"/>
</filter>
<filter id="filter3_d_730_2700" x="124.989" y="84.825" width="10.9751" height="18.425" filterUnits="userSpaceOnUse" color-interpolation-filters="sRGB">
<feFlood flood-opacity="0" result="BackgroundImageFix"/>
<feColorMatrix in="SourceAlpha" type="matrix" values="0 0 0 0 0 0 0 0 0 0 0 0 0 0 0 0 0 0 127 0" result="hardAlpha"/>
<feOffset dx="1" dy="1"/>
<feGaussianBlur stdDeviation="0.5"/>
<feComposite in2="hardAlpha" operator="out"/>
<feColorMatrix type="matrix" values="0 0 0 0 1 0 0 0 0 1 0 0 0 0 1 0 0 0 0.25 0"/>
<feBlend mode="normal" in2="BackgroundImageFix" result="effect1_dropShadow_730_2700"/>
<feBlend mode="normal" in="SourceGraphic" in2="effect1_dropShadow_730_2700" result="shape"/>
</filter>
<linearGradient id="paint0_linear_730_2700" x1="188.5" y1="-7.49999" x2="-20.4795" y2="162.428" gradientUnits="userSpaceOnUse">
<stop stop-color="#886DFF"/>
<stop offset="1" stop-color="#2D1467"/>
</linearGradient>
<radialGradient id="paint1_radial_730_2700" cx="0" cy="0" r="1" gradientUnits="userSpaceOnUse" gradientTransform="translate(169 166) rotate(-120.562) scale(195.685 278.07)">
<stop offset="0.085" stop-color="#947CFF"/>
<stop offset="1" stop-color="#488B9F" stop-opacity="0"/>
</radialGradient>
<radialGradient id="paint2_radial_730_2700" cx="0" cy="0" r="1" gradientUnits="userSpaceOnUse" gradientTransform="translate(-38.7879 188.658) rotate(-52.4572) scale(158.894)">
<stop stop-color="white" stop-opacity="0.9"/>
<stop offset="1" stop-color="#41798D" stop-opacity="0"/>
</radialGradient>
<clipPath id="clip0_730_2700">
<rect width="169" height="169" rx="10" fill="white"/>
</clipPath>
</defs>
</svg>
