<svg width="155" height="155" viewBox="0 0 155 155" fill="none" xmlns="http://www.w3.org/2000/svg">
<rect width="155" height="155" rx="20" fill="url(#paint0_linear_221_316)"/>
<mask id="mask0_221_316" style="mask-type:alpha" maskUnits="userSpaceOnUse" x="0" y="0" width="155" height="155">
<rect width="155" height="155" rx="20" fill="url(#paint1_linear_221_316)"/>
</mask>
<g mask="url(#mask0_221_316)">
<ellipse cx="115.5" cy="131" rx="54.5" ry="61" fill="#FC829F"/>
<rect x="76" y="84" width="79.9333" height="70.4655" rx="9.36" fill="#FC829F"/>
<ellipse cx="100.646" cy="116.297" rx="13.3222" ry="11.7443" fill="#FEFAFA"/>
<ellipse cx="102.977" cy="116.59" rx="5.66194" ry="4.99131" fill="black"/>
<ellipse cx="131.287" cy="116.297" rx="13.3222" ry="11.7443" fill="white"/>
<path d="M124.626 101.257C126.256 100.907 130.742 98.1772 138.819 101.519" stroke="black" stroke-width="2" stroke-linecap="round"/>
<path d="M91.9867 101.257C93.6165 100.907 98.1021 98.1772 106.18 101.519" stroke="black" stroke-width="2" stroke-linecap="round"/>
<path d="M129.009 139.944C128.215 139.975 125.521 139.835 124.809 137.169" stroke="black" stroke-width="2" stroke-linecap="round"/>
<path d="M111.119 138.024C111.042 138.721 110.505 141.052 107.41 141.297" stroke="black" stroke-width="2" stroke-linecap="round"/>
<ellipse cx="16.5805" cy="6.01172" rx="16.5805" ry="6.01172" transform="matrix(0.98465 0.174542 -0.222386 0.974959 82.0044 122.169)" fill="#FC829F"/>
<ellipse cx="16.5724" cy="6.01543" rx="16.5724" ry="6.01543" transform="matrix(0.982896 -0.184159 0.23438 0.972145 121.962 125.337)" fill="#FC829F"/>
<ellipse cx="128.956" cy="116.59" rx="5.66194" ry="4.99131" fill="black"/>
<g filter="url(#filter0_f_221_316)">
<path d="M143.662 111.936C144.569 114.924 145.67 116.325 144.074 116.702C142.478 117.078 142.14 112.599 139.498 109.575C137.517 107.307 134.186 105.661 135.782 105.284C137.378 104.908 142.755 108.948 143.662 111.936Z" fill="#87D1D6" fill-opacity="0.4"/>
</g>
<g filter="url(#filter1_f_221_316)">
<path d="M89.3926 109.783C91.8763 107.574 92.5006 105.847 94.1821 107.316C95.8635 108.785 91.3232 111.054 90.1886 115.051C89.3376 118.05 90.2344 122.159 88.553 120.69C86.8715 119.221 86.909 111.992 89.3926 109.783Z" fill="#87D1D6" fill-opacity="0.4"/>
</g>
<path d="M125.615 138.845C123.157 139.827 118.594 143.681 110.023 140.219" stroke="black" stroke-width="2" stroke-linecap="round"/>
<ellipse cx="99.3139" cy="113.948" rx="2.66444" ry="2.34885" fill="#FDF6F7"/>
<ellipse cx="125.292" cy="113.948" rx="2.66445" ry="2.34885" fill="#FFFBFC"/>
</g>
<path d="M15.5273 37.1172C14.1445 37.1172 13.3945 36.2266 13.3945 34.5859V24.0625C13.3945 22.1055 14.543 20.8867 16.3945 20.8867C17.9883 20.8867 19.0898 21.707 19.8164 23.7578L21.9609 29.7812H22.125L24.2461 23.7344C24.9727 21.6602 26.0156 20.8867 27.6914 20.8867C29.5781 20.8867 30.6562 22.0469 30.6562 24.0625V34.5859C30.6562 36.1797 29.8242 37.1172 28.4062 37.1172C27.0234 37.1172 26.2734 36.2266 26.2734 34.5859V28.082H26.2148L24.0586 33.9648C23.5664 35.3125 22.9219 35.7227 22.043 35.7227C21.1523 35.7227 20.4844 35.2656 20.0039 33.9648L17.8359 28.082H17.7773V34.5859C17.7773 36.1797 16.9453 37.1172 15.5273 37.1172ZM39.832 35.5234C39.3398 36.5078 38.1445 37.1172 36.6914 37.1172C34.2188 37.1172 32.543 35.582 32.543 33.3203C32.543 30.9297 34.3594 29.4766 37.3594 29.4648H39.8438V28.7266C39.8438 27.9766 39.3047 27.5547 38.4375 27.5547C37.6641 27.5547 37.0664 27.8945 36.4453 28.1758C36 28.375 35.543 28.5391 34.8398 28.5391C33.832 28.5391 33.2344 27.8711 33.2344 26.9922C33.2344 26.1953 33.7734 25.375 35.0391 24.8359C35.9297 24.4375 37.1602 24.1914 38.7539 24.1914C42.4688 24.1914 44.6016 25.8906 44.6016 28.8086V34.6328C44.6016 36.25 43.7695 37.1172 42.293 37.1172C41.1211 37.1172 40.2891 36.5547 40.0664 35.5234H39.832ZM37.1836 32.9219C37.1836 33.5664 37.7344 34.0352 38.4727 34.0352C39.2344 34.0352 39.8438 33.543 39.8438 32.9336V31.8086H38.625C37.7578 31.8086 37.1836 32.2539 37.1836 32.9219ZM51.4453 34.5156C51.4453 36.1797 50.6484 37.1172 49.125 37.1172C47.5664 37.1172 46.6875 36.1797 46.6875 34.5156V22.6445C46.6875 20.957 47.5195 20.043 49.0664 20.043C50.6133 20.043 51.4453 20.957 51.4453 22.6445V28.4805H51.7148L55.0195 25.0117C55.6172 24.3789 56.1562 24.1211 56.8828 24.1211C58.0781 24.1211 58.9336 24.9766 58.9336 26.1719C58.9336 26.7812 58.7227 27.2852 58.2656 27.7422L55.8984 30.0742L58.4883 33.1211C59.0156 33.7305 59.2734 34.3516 59.2734 34.9844C59.2734 36.1914 58.3477 37.1172 57.1289 37.1172C56.2852 37.1172 55.6641 36.8008 55.0898 36.1094L52.1602 32.4883L51.4453 33.2031V34.5156ZM59.9883 31.2227V30.168C59.9883 26.4297 62.4609 24.0156 66.2812 24.0156C69.8086 24.0156 72.3164 26.4297 72.3164 29.582C72.3164 31.0703 71.6602 31.668 70.043 31.668H64.8398V32.0195C64.875 33.1211 65.6953 33.918 67.1133 33.918C67.9453 33.918 68.4375 33.7773 68.8242 33.6016C69.3633 33.3555 69.6797 33.0625 70.3945 33.0625C71.3438 33.0625 71.9414 33.6367 71.9414 34.5977C71.9414 35.4414 71.4141 36.1094 70.4883 36.6016C69.5859 37.082 68.2969 37.3516 66.7617 37.3516C62.5664 37.3516 59.9883 35.0664 59.9883 31.2227ZM64.8398 29.207H67.8867V29.1836C67.8867 28.1406 67.2891 27.4375 66.3867 27.4375C65.3789 27.4375 64.8398 28.1406 64.8398 29.1836V29.207ZM85.3711 35.5234C84.8789 36.5078 83.6836 37.1172 82.2305 37.1172C79.7578 37.1172 78.082 35.582 78.082 33.3203C78.082 30.9297 79.8984 29.4766 82.8984 29.4648H85.3828V28.7266C85.3828 27.9766 84.8438 27.5547 83.9766 27.5547C83.2031 27.5547 82.6055 27.8945 81.9844 28.1758C81.5391 28.375 81.082 28.5391 80.3789 28.5391C79.3711 28.5391 78.7734 27.8711 78.7734 26.9922C78.7734 26.1953 79.3125 25.375 80.5781 24.8359C81.4688 24.4375 82.6992 24.1914 84.293 24.1914C88.0078 24.1914 90.1406 25.8906 90.1406 28.8086V34.6328C90.1406 36.25 89.3086 37.1172 87.832 37.1172C86.6602 37.1172 85.8281 36.5547 85.6055 35.5234H85.3711ZM82.7227 32.9219C82.7227 33.5664 83.2734 34.0352 84.0117 34.0352C84.7734 34.0352 85.3828 33.543 85.3828 32.9336V31.8086H84.1641C83.2969 31.8086 82.7227 32.2539 82.7227 32.9219ZM102.75 34.5156C102.75 36.2031 101.918 37.1172 100.383 37.1172C98.8477 37.1172 97.9922 36.2031 97.9922 34.5156V27.9414H97.793C96.5625 27.9414 95.8828 27.3203 95.8828 26.207C95.8828 25.0938 96.5625 24.4258 97.793 24.4258H97.9922V23.7695C97.9922 20.6875 99.5156 19.5273 102.504 19.5273C103.453 19.5273 104.203 19.6914 104.73 19.9844C105.316 20.3125 105.621 20.8047 105.621 21.3906C105.621 22.1641 105.117 22.668 104.426 22.668C104.156 22.668 103.875 22.6445 103.605 22.6445C102.984 22.6445 102.609 22.8672 102.609 23.6406V24.4258H103.395C104.625 24.4258 105.305 25.0703 105.305 26.1836C105.305 27.2969 104.625 27.9414 103.395 27.9414H102.75V34.5156ZM113.215 35.5234C112.723 36.5078 111.527 37.1172 110.074 37.1172C107.602 37.1172 105.926 35.582 105.926 33.3203C105.926 30.9297 107.742 29.4766 110.742 29.4648H113.227V28.7266C113.227 27.9766 112.688 27.5547 111.82 27.5547C111.047 27.5547 110.449 27.8945 109.828 28.1758C109.383 28.375 108.926 28.5391 108.223 28.5391C107.215 28.5391 106.617 27.8711 106.617 26.9922C106.617 26.1953 107.156 25.375 108.422 24.8359C109.312 24.4375 110.543 24.1914 112.137 24.1914C115.852 24.1914 117.984 25.8906 117.984 28.8086V34.6328C117.984 36.25 117.152 37.1172 115.676 37.1172C114.504 37.1172 113.672 36.5547 113.449 35.5234H113.215ZM110.566 32.9219C110.566 33.5664 111.117 34.0352 111.855 34.0352C112.617 34.0352 113.227 33.543 113.227 32.9336V31.8086H112.008C111.141 31.8086 110.566 32.2539 110.566 32.9219ZM119.625 34.5273C119.625 33.625 120.293 33.0039 121.266 33.0039C121.758 33.0039 122.168 33.1445 122.906 33.4492C124.043 33.918 124.629 34.0938 125.273 34.0938C126.07 34.0938 126.527 33.8242 126.527 33.3672C126.527 32.8984 126.082 32.582 124.887 32.3359L123.492 32.0547C120.914 31.5391 119.777 30.332 119.777 28.3281C119.777 25.75 122.086 24.0156 125.637 24.0156C126.773 24.0156 127.875 24.1914 128.789 24.543C129.938 24.9883 130.559 25.6914 130.559 26.582C130.559 27.4961 129.879 28.0469 128.906 28.0469C128.52 28.0469 128.004 27.9414 127.289 27.6836C126.281 27.3203 125.777 27.2266 125.367 27.2266C124.699 27.2266 124.301 27.6016 124.301 28.0469C124.301 28.4805 124.641 28.7031 125.461 28.8555L127.605 29.2539C129.938 29.6875 131.051 30.918 131.051 32.9336C131.051 35.6875 128.836 37.3516 125.016 37.3516C123.492 37.3516 122.18 37.0938 121.23 36.6367C120.188 36.1328 119.625 35.4062 119.625 34.5273ZM133.805 33.5898V28.1172H133.594C132.363 28.1172 131.684 27.4727 131.684 26.3594C131.684 25.2461 132.363 24.6016 133.594 24.6016H133.957V23.6172C133.957 22 134.766 21.1211 136.242 21.1211C137.719 21.1211 138.516 22 138.516 23.6172V24.6016H139.125C140.355 24.6016 141.035 25.2461 141.035 26.3594C141.035 27.4727 140.355 28.1172 139.125 28.1172H138.586V32.6641C138.586 33.4961 138.832 33.8594 139.441 33.8594C139.758 33.8594 139.945 33.7891 140.332 33.7891C140.988 33.7891 141.457 34.2812 141.457 35.043C141.457 35.6992 141.164 36.25 140.637 36.6484C140.027 37.1055 139.125 37.3516 138.023 37.3516C135.199 37.3516 133.805 36.0977 133.805 33.5898ZM20.6719 63.9727C20.2148 65.2969 18.8789 66.1172 17.1562 66.1172C14.332 66.1172 12.6562 63.9023 12.6562 60.1523V59.1211C12.6562 55.3711 14.3203 53.1914 17.1562 53.1914C18.8906 53.1914 20.2148 53.9766 20.6719 55.2891H20.9062V51.6445C20.9062 49.957 21.7383 49.043 23.2852 49.043C24.832 49.043 25.6641 49.957 25.6641 51.6445V63.5156C25.6641 65.2031 24.832 66.1172 23.2852 66.1172C21.9258 66.1172 21.0586 65.332 20.9062 63.9727H20.6719ZM17.5898 60.0469C17.5898 61.6172 18.2109 62.5547 19.2422 62.5547C20.2852 62.5547 20.9062 61.6172 20.9062 60.0469V59.2617C20.9062 57.7031 20.2852 56.7773 19.2422 56.7773C18.2109 56.7773 17.5898 57.7031 17.5898 59.2617V60.0469ZM27.4336 60.2227V59.168C27.4336 55.4297 29.9062 53.0156 33.7266 53.0156C37.2539 53.0156 39.7617 55.4297 39.7617 58.582C39.7617 60.0703 39.1055 60.668 37.4883 60.668H32.2852V61.0195C32.3203 62.1211 33.1406 62.918 34.5586 62.918C35.3906 62.918 35.8828 62.7773 36.2695 62.6016C36.8086 62.3555 37.125 62.0625 37.8398 62.0625C38.7891 62.0625 39.3867 62.6367 39.3867 63.5977C39.3867 64.4414 38.8594 65.1094 37.9336 65.6016C37.0312 66.082 35.7422 66.3516 34.207 66.3516C30.0117 66.3516 27.4336 64.0664 27.4336 60.2227ZM32.2852 58.207H35.332V58.1836C35.332 57.1406 34.7344 56.4375 33.832 56.4375C32.8242 56.4375 32.2852 57.1406 32.2852 58.1836V58.207ZM41.0039 60.1172V58.9805C41.0039 55.4883 43.2773 53.0156 47.3789 53.0156C49.0781 53.0156 50.5547 53.4727 51.5039 54.1758C52.207 54.7031 52.6289 55.3711 52.6289 56.0977C52.6289 57.1055 51.8906 57.8672 50.8359 57.8672C50.1562 57.8672 49.7109 57.5508 49.2656 57.2578C48.8438 56.9648 48.4102 56.6953 47.7539 56.6953C46.5117 56.6953 45.9375 57.6914 45.9375 59.2383V59.8828C45.9375 61.5938 46.3008 62.6719 47.8008 62.6719C48.5625 62.6719 49.0078 62.332 49.4648 62.0391C49.8984 61.7578 50.2852 61.4766 50.9531 61.4766C52.0547 61.4766 52.6641 62.2031 52.6641 63.1875C52.6641 63.9727 52.1602 64.7695 51.2461 65.3555C50.3203 65.9531 48.9961 66.3516 47.3555 66.3516C43.4766 66.3516 41.0039 64.2188 41.0039 60.1172ZM54.7031 50.1094C54.7031 48.8555 55.7109 47.9648 57.1523 47.9648C58.582 47.9648 59.5898 48.8555 59.5898 50.1094C59.5898 51.375 58.582 52.2656 57.1523 52.2656C55.7109 52.2656 54.7031 51.375 54.7031 50.1094ZM59.5312 63.5156C59.5312 65.2031 58.6992 66.1172 57.1523 66.1172C55.6055 66.1172 54.7734 65.2031 54.7734 63.5156V55.875C54.7734 54.1875 55.6055 53.2734 57.1523 53.2734C58.6992 53.2734 59.5312 54.1875 59.5312 55.875V63.5156ZM61.5 63.5273C61.5 62.625 62.168 62.0039 63.1406 62.0039C63.6328 62.0039 64.043 62.1445 64.7812 62.4492C65.918 62.918 66.5039 63.0938 67.1484 63.0938C67.9453 63.0938 68.4023 62.8242 68.4023 62.3672C68.4023 61.8984 67.957 61.582 66.7617 61.3359L65.3672 61.0547C62.7891 60.5391 61.6523 59.332 61.6523 57.3281C61.6523 54.75 63.9609 53.0156 67.5117 53.0156C68.6484 53.0156 69.75 53.1914 70.6641 53.543C71.8125 53.9883 72.4336 54.6914 72.4336 55.582C72.4336 56.4961 71.7539 57.0469 70.7812 57.0469C70.3945 57.0469 69.8789 56.9414 69.1641 56.6836C68.1562 56.3203 67.6523 56.2266 67.2422 56.2266C66.5742 56.2266 66.1758 56.6016 66.1758 57.0469C66.1758 57.4805 66.5156 57.7031 67.3359 57.8555L69.4805 58.2539C71.8125 58.6875 72.9258 59.918 72.9258 61.9336C72.9258 64.6875 70.7109 66.3516 66.8906 66.3516C65.3672 66.3516 64.0547 66.0938 63.1055 65.6367C62.0625 65.1328 61.5 64.4062 61.5 63.5273ZM74.8125 50.1094C74.8125 48.8555 75.8203 47.9648 77.2617 47.9648C78.6914 47.9648 79.6992 48.8555 79.6992 50.1094C79.6992 51.375 78.6914 52.2656 77.2617 52.2656C75.8203 52.2656 74.8125 51.375 74.8125 50.1094ZM79.6406 63.5156C79.6406 65.2031 78.8086 66.1172 77.2617 66.1172C75.7148 66.1172 74.8828 65.2031 74.8828 63.5156V55.875C74.8828 54.1875 75.7148 53.2734 77.2617 53.2734C78.8086 53.2734 79.6406 54.1875 79.6406 55.875V63.5156ZM87.8203 53.0156C91.7578 53.0156 94.2305 55.418 94.2305 59.1914V60.0352C94.2305 64.0664 91.7578 66.3516 87.8203 66.3516C83.8594 66.3516 81.375 64.0664 81.375 60.0586V59.2266C81.375 55.418 83.8594 53.0156 87.8203 53.0156ZM87.8086 56.4375C86.8477 56.4375 86.3086 57.3398 86.3086 59.0977V60.2578C86.3086 61.9805 86.8477 62.9297 87.8086 62.9297C88.793 62.9297 89.2969 61.9805 89.2969 60.2578V59.0977C89.2969 57.3398 88.793 56.4375 87.8086 56.4375ZM108.387 63.5391C108.387 65.2266 107.543 66.1172 106.008 66.1172C104.461 66.1172 103.629 65.2031 103.629 63.5156V59.0156C103.629 57.832 103.055 57.0703 102.117 57.0703C101.191 57.0703 100.57 57.832 100.57 59.0508V63.5156C100.57 65.2031 99.7383 66.1172 98.2031 66.1172C96.6562 66.1172 95.8125 65.2031 95.8125 63.5156V55.7578C95.8125 54.2109 96.7031 53.2734 98.1211 53.2734C99.5156 53.2734 100.324 54.0352 100.406 55.4883H100.641C101.074 54.1406 102.562 53.1914 104.285 53.1914C106.91 53.1914 108.387 54.8555 108.387 57.8203V63.5391Z" fill="white"/>
<defs>
<filter id="filter0_f_221_316" x="133.357" y="103.254" width="13.5333" height="15.4756" filterUnits="userSpaceOnUse" color-interpolation-filters="sRGB">
<feFlood flood-opacity="0" result="BackgroundImageFix"/>
<feBlend mode="normal" in="SourceGraphic" in2="BackgroundImageFix" result="shape"/>
<feGaussianBlur stdDeviation="1.00286" result="effect1_foregroundBlur_221_316"/>
</filter>
<filter id="filter1_f_221_316" x="85.3878" y="104.765" width="11.1693" height="18.2385" filterUnits="userSpaceOnUse" color-interpolation-filters="sRGB">
<feFlood flood-opacity="0" result="BackgroundImageFix"/>
<feBlend mode="normal" in="SourceGraphic" in2="BackgroundImageFix" result="shape"/>
<feGaussianBlur stdDeviation="1.00286" result="effect1_foregroundBlur_221_316"/>
</filter>
<linearGradient id="paint0_linear_221_316" x1="77.5" y1="0" x2="77.5" y2="155" gradientUnits="userSpaceOnUse">
<stop stop-color="#4A43A0"/>
<stop offset="1" stop-color="#1D1D33"/>
</linearGradient>
<linearGradient id="paint1_linear_221_316" x1="77.5" y1="0" x2="77.5" y2="155" gradientUnits="userSpaceOnUse">
<stop stop-color="#4A43A0"/>
<stop offset="1" stop-color="#1D1D33"/>
</linearGradient>
</defs>
</svg>
