<svg width="393" height="852" viewBox="0 0 393 852" fill="none" xmlns="http://www.w3.org/2000/svg">
<g clip-path="url(#clip0_569_2713)">
<rect width="393" height="852" fill="#4A43A0"/>
<ellipse cx="208" cy="603" rx="322" ry="366" fill="#4A43A0"/>
<ellipse cx="136.882" cy="382.806" rx="55.188" ry="56.0306" fill="white"/>
<ellipse cx="261.582" cy="382.806" rx="55.188" ry="56.0306" fill="white"/>
<circle cx="136.805" cy="356.805" r="27.8047" fill="black"/>
<circle cx="261.805" cy="356.805" r="27.8047" fill="black"/>
<circle cx="134.902" cy="342.902" r="13.9023" fill="white"/>
<circle cx="261.902" cy="342.902" r="13.9023" fill="white"/>
<path d="M223.245 313.294C223.245 313.294 265.795 283.383 299.919 313.294" stroke="#1E1E1E" stroke-width="6.74052" stroke-linecap="round"/>
<ellipse cx="136.882" cy="443.657" rx="72.0394" ry="36.6516" fill="#4A43A0"/>
<ellipse cx="280.961" cy="443.657" rx="72.0394" ry="36.6516" fill="#4A43A0"/>
<path d="M144 498.173C144 498.173 205.507 473.318 267.015 481.743" stroke="#1E1E1E" stroke-width="6.74052" stroke-linecap="round"/>
<path d="M97 322.294C97 322.294 139.55 292.383 173.673 322.294" stroke="#1E1E1E" stroke-width="6.74052" stroke-linecap="round"/>
<g filter="url(#filter0_dd_569_2713)">
<path d="M110.873 808.342V787.666C110.873 784.765 112.63 783.007 115.487 783.007H123.858C132.779 783.007 137.635 788.281 137.635 797.993C137.635 807.727 132.779 813 123.858 813H115.487C112.63 813 110.873 811.242 110.873 808.342ZM120.079 805.881H122.188C126.429 805.881 128.209 803.552 128.209 797.993C128.209 792.434 126.429 790.104 122.188 790.104H120.079V805.881ZM139.898 802.167V800.19C139.898 793.181 144.535 788.654 151.698 788.654C158.312 788.654 163.014 793.181 163.014 799.091C163.014 801.882 161.783 803.002 158.751 803.002H148.995V803.662C149.061 805.727 150.599 807.221 153.258 807.221C154.818 807.221 155.741 806.958 156.466 806.628C157.477 806.167 158.07 805.617 159.41 805.617C161.19 805.617 162.311 806.694 162.311 808.496C162.311 810.078 161.322 811.33 159.586 812.253C157.894 813.154 155.477 813.659 152.599 813.659C144.732 813.659 139.898 809.375 139.898 802.167ZM148.995 798.388H154.708V798.344C154.708 796.389 153.587 795.07 151.896 795.07C150.006 795.07 148.995 796.389 148.995 798.344V798.388ZM168.353 806.979L165.343 794.938C165.123 793.95 165.057 793.554 165.057 793.181C165.057 790.764 166.793 789.138 169.452 789.138C171.737 789.138 173.187 790.522 173.539 793.049L175.23 804.892H175.626L178.021 793.225C178.526 790.698 180.196 789.138 182.833 789.138C185.514 789.138 187.337 790.786 187.821 793.225L190.216 804.892H190.611L192.479 793.247C192.896 790.654 194.435 789.138 196.676 789.138C199.422 789.138 201.136 790.808 201.136 793.181C201.136 793.62 200.982 794.433 200.763 795.224L197.401 806.979C196.17 811.308 194.215 813.22 191.161 813.22C187.821 813.22 185.931 811.374 184.964 806.979L183.031 798.278H182.679L180.79 806.979C179.845 811.374 177.955 813.22 174.593 813.22C171.473 813.22 169.408 811.176 168.353 806.979ZM204.256 783.205C204.256 780.854 206.146 779.184 208.849 779.184C211.529 779.184 213.419 780.854 213.419 783.205C213.419 785.578 211.529 787.248 208.849 787.248C206.146 787.248 204.256 785.578 204.256 783.205ZM213.309 808.342C213.309 811.506 211.749 813.22 208.849 813.22C205.948 813.22 204.388 811.506 204.388 808.342V794.016C204.388 790.852 205.948 789.138 208.849 789.138C211.749 789.138 213.309 790.852 213.309 794.016V808.342ZM217 808.364C217 806.672 218.253 805.507 220.077 805.507C221 805.507 221.769 805.771 223.153 806.342C225.284 807.221 226.383 807.551 227.591 807.551C229.085 807.551 229.942 807.045 229.942 806.188C229.942 805.31 229.107 804.716 226.866 804.255L224.251 803.728C219.417 802.761 217.286 800.498 217.286 796.74C217.286 791.906 221.615 788.654 228.272 788.654C230.404 788.654 232.469 788.984 234.183 789.643C236.336 790.478 237.501 791.796 237.501 793.466C237.501 795.18 236.227 796.213 234.403 796.213C233.678 796.213 232.711 796.015 231.371 795.532C229.481 794.851 228.536 794.675 227.767 794.675C226.515 794.675 225.768 795.378 225.768 796.213C225.768 797.026 226.405 797.443 227.943 797.729L231.964 798.476C236.336 799.289 238.424 801.596 238.424 805.375C238.424 810.539 234.271 813.659 227.108 813.659C224.251 813.659 221.791 813.176 220.011 812.319C218.055 811.374 217 810.012 217 808.364ZM240.885 802.167V800.19C240.885 793.181 245.521 788.654 252.684 788.654C259.298 788.654 264 793.181 264 799.091C264 801.882 262.77 803.002 259.737 803.002H249.981V803.662C250.047 805.727 251.585 807.221 254.244 807.221C255.804 807.221 256.727 806.958 257.452 806.628C258.463 806.167 259.056 805.617 260.396 805.617C262.176 805.617 263.297 806.694 263.297 808.496C263.297 810.078 262.308 811.33 260.572 812.253C258.88 813.154 256.463 813.659 253.585 813.659C245.719 813.659 240.885 809.375 240.885 802.167ZM249.981 798.388H255.694V798.344C255.694 796.389 254.574 795.07 252.882 795.07C250.992 795.07 249.981 796.389 249.981 798.344V798.388ZM276.151 808.342C276.151 811.462 274.503 813.22 271.559 813.22C268.614 813.22 267.23 811.462 267.23 808.342V794.016C267.23 790.852 268.724 789.138 271.581 789.138C274.151 789.138 275.58 790.478 275.843 793.115H276.283C276.832 790.5 278.458 788.984 280.787 788.984C281.93 788.984 282.831 789.335 283.468 789.995C284.083 790.654 284.413 791.599 284.413 792.785C284.413 793.928 284.105 794.785 283.49 795.378C282.875 795.949 281.93 796.257 280.677 796.323C277.601 796.477 276.151 798.168 276.151 801.289V808.342Z" fill="#EEEDFD"/>
</g>
</g>
<defs>
<filter id="filter0_dd_569_2713" x="106.873" y="779.184" width="181.54" height="42.4756" filterUnits="userSpaceOnUse" color-interpolation-filters="sRGB">
<feFlood flood-opacity="0" result="BackgroundImageFix"/>
<feColorMatrix in="SourceAlpha" type="matrix" values="0 0 0 0 0 0 0 0 0 0 0 0 0 0 0 0 0 0 127 0" result="hardAlpha"/>
<feOffset dy="4"/>
<feGaussianBlur stdDeviation="2"/>
<feComposite in2="hardAlpha" operator="out"/>
<feColorMatrix type="matrix" values="0 0 0 0 0 0 0 0 0 0 0 0 0 0 0 0 0 0 0.25 0"/>
<feBlend mode="normal" in2="BackgroundImageFix" result="effect1_dropShadow_569_2713"/>
<feColorMatrix in="SourceAlpha" type="matrix" values="0 0 0 0 0 0 0 0 0 0 0 0 0 0 0 0 0 0 127 0" result="hardAlpha"/>
<feOffset dy="4"/>
<feGaussianBlur stdDeviation="2"/>
<feComposite in2="hardAlpha" operator="out"/>
<feColorMatrix type="matrix" values="0 0 0 0 0 0 0 0 0 0 0 0 0 0 0 0 0 0 0.25 0"/>
<feBlend mode="normal" in2="effect1_dropShadow_569_2713" result="effect2_dropShadow_569_2713"/>
<feBlend mode="normal" in="SourceGraphic" in2="effect2_dropShadow_569_2713" result="shape"/>
</filter>
<clipPath id="clip0_569_2713">
<rect width="393" height="852" fill="white"/>
</clipPath>
</defs>
</svg>
